<svg width="411" height="411" viewBox="0 0 411 411" fill="none" xmlns="http://www.w3.org/2000/svg">
<circle cx="205.5" cy="205.5" r="205.5" fill="#40FF00"/>
<path fill-rule="evenodd" clip-rule="evenodd" d="M206.893 97.0727C180.709 97.0727 141.048 109.715 141.048 109.715C133.147 83.902 91.3622 65.1775 60.9801 83.902C43.1551 94.8876 33.5866 115.35 35.1696 136.051C36.8872 158.515 47.8111 173.451 69.936 187.674C65.9793 197.025 64.9696 207.356 64.2243 214.984C63.8779 218.528 63.5886 221.488 63.0872 223.493C52.4625 254.433 42.4305 291.347 60.9801 320.944C77.3927 347.131 110.69 368.55 140.521 376.914C172.11 385.772 210.344 388.361 245.874 382.548C273.266 372.566 288.954 350.969 286.962 319.89C286.278 309.231 284.267 303.154 279.587 293.552C274.772 283.675 267.851 274.432 259.57 267.214C256.7 264.713 254.29 263.216 251.736 261.63C249.926 260.505 248.043 259.336 245.874 257.733C239.851 253.282 236.002 250.007 231.254 245.967C229.606 244.566 227.85 243.071 225.857 241.403C200.046 219.806 182.662 198.735 182.662 161.864C182.662 134.681 197.902 114.562 219.009 97.797C214.795 97.34 210.702 97.0727 206.893 97.0727Z" fill="#40FF00"/>
<path d="M219.009 97.7964C214.795 97.3395 210.702 97.0721 206.893 97.0721C180.709 97.0721 141.048 109.714 141.048 109.714C133.147 83.9014 91.3622 65.1769 60.9801 83.9014C43.1551 94.887 33.5866 115.35 35.1696 136.051C36.8872 158.515 47.8111 173.451 69.936 187.673C65.9793 197.024 64.9696 207.356 64.2243 214.983C63.8779 218.527 63.5886 221.488 63.0872 223.493C52.4625 254.432 42.4305 291.347 60.9801 320.943C77.3927 347.131 110.69 368.55 140.521 376.914C172.11 385.772 210.344 388.36 245.874 382.548M219.009 97.7964C243.774 100.482 272.739 109.714 272.739 109.714C272.739 109.714 285.48 89.0458 298.55 82.3228C316.478 73.1013 332.837 72.0315 350.173 82.3228C377.741 98.6882 382.627 135.171 368.083 161.864C361.053 174.765 341.218 188.202 341.218 188.202C345.432 196.628 347.539 217.171 347.539 223.493C361.274 255.377 370.657 288.364 351.753 320.943C341.411 338.769 317.313 356.353 299.077 365.718C283.065 373.942 264.854 379.443 245.874 382.548M219.009 97.7964C197.902 114.562 182.662 134.681 182.662 161.864C182.662 198.735 200.046 219.805 225.857 241.402C227.85 243.07 229.606 244.565 231.254 245.966C236.002 250.007 239.851 253.281 245.874 257.732C248.043 259.335 249.926 260.505 251.736 261.629C254.29 263.216 256.7 264.713 259.57 267.214C267.851 274.431 274.772 283.674 279.587 293.552C284.267 303.153 286.278 309.23 286.962 319.89C288.954 350.969 273.266 372.566 245.874 382.548" stroke="#1A2310" stroke-width="4"/>
<path fill-rule="evenodd" clip-rule="evenodd" d="M272.739 109.714C272.739 109.714 243.775 100.482 219.009 97.7964C197.902 114.562 182.663 134.681 182.663 161.864C182.663 198.735 200.046 219.805 225.857 241.402C227.85 243.07 229.607 244.565 231.254 245.966C236.003 250.007 239.851 253.281 245.874 257.732C248.043 259.335 249.926 260.505 251.736 261.629C254.29 263.216 256.7 264.713 259.57 267.214C267.851 274.431 274.772 283.674 279.587 293.552C284.267 303.153 286.278 309.23 286.962 319.89C288.954 350.969 273.266 372.566 245.874 382.548C264.855 379.443 283.065 373.942 299.077 365.718C317.313 356.353 341.411 338.769 351.754 320.943C370.657 288.364 361.274 255.377 347.54 223.493C347.54 217.171 345.433 196.628 341.218 188.202C341.218 188.202 361.053 174.765 368.083 161.864C382.627 135.171 377.741 98.6882 350.173 82.3228C332.838 72.0315 316.478 73.1013 298.551 82.3228C285.48 89.0458 272.739 109.714 272.739 109.714Z" fill="#A5593F"/>
<path d="M219.009 97.7964C214.795 97.3395 210.702 97.0721 206.893 97.0721C180.709 97.0721 141.048 109.714 141.048 109.714C133.147 83.9014 91.3622 65.1769 60.9801 83.9014C43.1551 94.887 33.5866 115.35 35.1696 136.051C36.8872 158.515 47.8111 173.451 69.936 187.673C64.1407 201.369 64.6675 217.171 63.0872 223.493C52.4625 254.432 42.4305 291.347 60.9801 320.943C77.3927 347.131 110.69 368.55 140.521 376.914C172.11 385.772 210.344 388.36 245.874 382.548M219.009 97.7964C243.774 100.482 272.739 109.714 272.739 109.714C272.739 109.714 285.48 89.0458 298.55 82.3228C316.478 73.1013 332.837 72.0315 350.173 82.3228C377.741 98.6882 382.627 135.171 368.083 161.864C361.053 174.765 341.218 188.202 341.218 188.202C345.432 196.628 347.539 217.171 347.539 223.493C361.274 255.377 370.657 288.364 351.753 320.943C341.411 338.769 317.313 356.353 299.077 365.718C283.065 373.942 264.854 379.443 245.874 382.548M219.009 97.7964C197.902 114.562 182.662 134.681 182.662 161.864C182.662 198.735 200.046 219.805 225.857 241.402C227.85 243.07 229.606 244.565 231.254 245.966C236.002 250.007 239.851 253.281 245.874 257.732C248.043 259.335 249.926 260.505 251.736 261.629C254.29 263.216 256.7 264.713 259.57 267.214C267.851 274.431 274.772 283.674 279.587 293.552C284.267 303.153 286.278 309.23 286.962 319.89C288.954 350.969 273.266 372.566 245.874 382.548" stroke="#1A2310" stroke-width="8"/>
<path d="M313.3 139.735C308.801 134.727 301.632 129.642 297.874 127.127C296.395 126.137 295.647 124.354 296.269 122.686C297.979 118.088 302.577 109.037 313.3 104.441C324.91 99.4643 336.513 103.513 344.379 113.397C351.118 121.865 352.108 130.944 348.593 140.787C344.81 151.381 335.32 157.084 330.272 159.456C328.418 160.328 326.299 159.488 325.297 157.7C322.75 153.157 317.762 144.702 313.3 139.735Z" fill="#40FF00" stroke="#1A2310" stroke-width="8"/>
<path d="M98.7878 139.735C103.287 134.727 110.456 129.642 114.214 127.127C115.693 126.137 116.44 124.354 115.819 122.686C114.108 118.088 109.511 109.037 98.7878 104.441C87.1785 99.4643 75.5741 103.513 67.7088 113.397C60.9697 121.865 59.98 130.944 63.4946 140.787C67.278 151.381 76.7677 157.084 81.8152 159.456C83.6699 160.328 85.788 159.488 86.7903 157.7C89.3378 153.157 94.3259 144.702 98.7878 139.735Z" fill="#A5593F" stroke="#1A2310" stroke-width="9"/>
<path d="M286.961 319.891C283.651 279.028 244.192 245.169 203.733 246.671C165.192 248.102 129.11 280.91 126.298 319.891C124.288 347.757 139.918 373.088 166.859 382.049C192.672 387.317 223.751 387.317 247.981 382.049C273.981 372.824 289.155 346.971 286.961 319.891Z" fill="#A5593F" stroke="#1A2310" stroke-width="4"/>
<path d="M188.457 340.432C215.322 342.012 233.059 343.119 250.442 320.469" stroke="#1A2310" stroke-width="8" stroke-linecap="round"/>
<path d="M310.139 219.275C311.303 219.275 312.246 220.219 312.246 221.382C312.246 222.547 311.303 223.489 310.139 223.489H297.398C297.188 225.742 296.641 227.953 295.772 230.051C294.634 232.798 292.967 235.296 290.863 237.399C288.76 239.503 286.262 241.171 283.514 242.308C280.766 243.447 277.82 244.033 274.846 244.033C271.872 244.033 268.926 243.447 266.179 242.308C263.43 241.171 260.932 239.503 258.829 237.399C256.725 235.296 255.058 232.798 253.92 230.051C253.051 227.953 252.505 225.742 252.294 223.489H242.713C241.549 223.489 240.606 222.547 240.606 221.382C240.606 220.219 241.549 219.275 242.713 219.275H310.139Z" fill="#1A2310"/>
<path d="M102.594 219.275C101.43 219.275 100.487 220.219 100.487 221.382C100.487 222.546 101.43 223.489 102.594 223.489H115.336C115.547 225.742 116.091 227.953 116.96 230.051C118.098 232.798 119.768 235.295 121.871 237.398C123.974 239.502 126.471 241.171 129.219 242.308C131.967 243.447 134.913 244.033 137.887 244.033C140.861 244.033 143.806 243.447 146.555 242.308C149.303 241.171 151.801 239.502 153.903 237.398C156.007 235.295 157.675 232.798 158.813 230.051C159.682 227.953 160.229 225.742 160.438 223.489H170.019C171.182 223.489 172.126 222.547 172.126 221.382C172.126 220.219 171.183 219.275 170.019 219.275H102.594Z" fill="#1A2310"/>
<path d="M240.266 278.869C237.173 264.642 218.941 261.698 207.08 261.486C195.049 261.271 174.308 264.001 171.26 278.869C167.722 296.121 191.1 313.162 207.08 312.055C222.19 311.008 243.847 295.338 240.266 278.869Z" fill="#1A2310" stroke="#1A2310"/>
<path d="M217.148 278.905C222.419 279.466 226.944 277.547 227.256 274.617C227.568 271.687 223.549 268.857 218.279 268.296C213.008 267.734 208.483 269.654 208.171 272.584C207.859 275.513 211.878 278.344 217.148 278.905Z" fill="#D9D9D9"/>
</svg>
