<svg width="505" height="312" viewBox="0 0 505 312" fill="none" xmlns="http://www.w3.org/2000/svg">
<path d="M346.639 10.6884L346.67 10.7058C346.689 10.7168 346.709 10.7278 346.729 10.7393C367.429 22.644 365.621 27.4933 381.5 16.5C388 12 392.462 3.98238 399.229 3.6416L451.518 1.00977C458.929 0.636669 465.624 5.40801 467.689 12.5352L504.367 139.077C505.668 143.564 504.943 148.396 502.382 152.303C499.821 156.21 495.68 158.803 491.047 159.4L466.984 162.504C473.164 167.605 478.133 173.819 481.857 181.003C486.271 189.399 488.213 198.706 488.213 208.454C488.213 214.09 487.716 219.53 486.608 224.693L486.595 224.759C486.586 224.799 486.579 224.84 486.57 224.88C485.479 230.112 483.697 235.102 481.159 239.766C478.595 244.478 475.335 248.726 471.484 252.514C471.258 252.737 471.029 252.958 470.798 253.178L485.818 280.087C488.316 284.561 488.52 289.961 486.366 294.61C484.213 299.26 479.963 302.596 474.936 303.585L433.888 311.657C427.199 312.972 420.547 309.904 417.126 304.266C414.253 308.58 409.345 311.407 403.801 311.407H364.578C360.274 311.407 356.152 309.673 353.142 306.597C352.843 306.292 352.559 305.976 352.288 305.65L312.079 310.837C304.118 311.864 296.629 306.833 294.568 299.075L294.107 297.34L293.867 298.426C292.118 306.329 284.741 311.681 276.685 310.892L228.722 306.191C228.496 306.169 228.272 306.141 228.049 306.109C226.342 306.781 224.494 307.171 222.561 307.216L146.72 308.985C142.352 309.087 138.132 307.398 135.04 304.311C133.992 303.263 133.104 302.086 132.393 300.817C129.804 302.358 127.083 303.698 124.247 304.843C124.208 304.858 124.17 304.874 124.131 304.89C119.268 306.809 114.225 308.306 109.018 309.393C103.958 310.449 98.8549 311.153 93.7139 311.507C89.0452 311.832 84.5934 312 80.3672 312C76.2473 312 72.01 311.834 67.6592 311.513C63.1211 311.236 58.5916 310.72 54.0733 309.966C49.5139 309.205 45.0168 308.2 40.585 306.951C40.5447 306.94 40.5044 306.928 40.4641 306.916L40.3633 306.887C35.6788 305.494 31.1815 303.749 26.8916 301.638C21.4293 298.95 17.9655 293.395 17.9561 287.307L17.7744 170.344C17.7691 166.883 18.8789 163.604 20.8252 160.922C16.7731 159.627 12.8651 158.064 9.11623 156.219C3.65411 153.531 0.191196 147.975 0.181659 141.888L1.88153e-05 24.9238C-0.009905 18.4298 3.90656 12.5735 9.91213 10.1025C13.8892 8.46619 18.0508 7.03418 22.3838 5.79395C26.6246 4.5214 30.928 3.47906 35.292 2.66504C39.7199 1.7913 44.1399 1.14468 48.5488 0.728516C53.0065 0.24762 57.388 0 61.6865 0C66.647 1.80577e-05 71.6226 0.315127 76.6094 0.938477C81.9362 1.59639 87.1179 2.70171 92.1328 4.27637C97.2858 5.89442 102.179 8.0415 106.772 10.7393C111.663 13.5519 116.012 17.0777 119.739 21.3027L119.787 21.3564C119.793 21.3631 119.792 21.3625 119.798 21.3692C119.804 21.3758 119.817 21.3896 119.823 21.3963L119.84 21.4155L119.854 21.4312L119.861 21.4395C122.496 24.402 124.704 27.6472 126.504 31.1299C127.339 30.1099 128.198 29.1079 129.083 28.125C133.65 23.051 138.78 18.6377 144.459 14.9209L144.503 14.8924L144.547 14.864C150.364 11.1109 156.625 8.20424 163.281 6.14258C170.196 4.00075 177.383 2.9678 184.768 2.96777C195.895 2.96777 206.458 4.70314 216.267 8.41895C225.241 11.7964 233.246 16.6223 240.074 22.9697C240.764 17.2764 244.472 12.3228 249.868 10.1025C253.845 8.46618 258.007 7.03419 262.34 5.79395C266.642 4.50308 271.008 3.44698 275.437 2.62793C279.802 1.77284 284.158 1.1388 288.505 0.728516C292.963 0.247612 297.344 0 301.643 0C306.603 1.28984e-05 311.579 0.315131 316.565 0.938477C321.892 1.59639 327.074 2.70171 332.089 4.27637C337.175 5.87346 342.007 7.98795 346.549 10.6367L346.583 10.6561L346.613 10.6738L346.639 10.6884Z" fill="#1A2310"/>
<path d="M121.332 116.073C121.332 121.097 120.395 125.426 118.522 129.058C116.709 132.691 114.261 135.778 111.179 138.321C108.097 140.864 104.532 142.952 100.483 144.587C96.4946 146.161 92.3248 147.402 87.9737 148.31C83.6227 149.218 79.2414 149.824 74.8299 150.126C70.4789 150.429 66.3997 150.58 62.5926 150.58C58.8458 150.58 54.948 150.429 50.8991 150.126C46.9106 149.884 42.9222 149.43 38.9337 148.764C34.9452 148.098 31.0172 147.22 27.1496 146.131C23.282 144.98 19.6259 143.558 16.1813 141.863L16 24.8994C19.3842 23.507 22.9798 22.2659 26.787 21.1762C30.5942 20.0259 34.4618 19.0875 38.3898 18.3611C42.3783 17.574 46.3365 16.9989 50.2646 16.6357C54.1926 16.2119 57.9998 16 61.6861 16C65.9767 16 70.2976 16.2724 74.6486 16.8173C79.0601 17.3621 83.2903 18.2702 87.3392 19.5416C91.3881 20.8129 95.1651 22.4778 98.6701 24.5361C102.175 26.534 105.227 29.0161 107.825 31.9826C110.484 34.949 112.539 38.3998 113.989 42.3349C115.5 46.27 116.256 50.8105 116.256 55.9564C116.256 59.3466 115.772 62.525 114.805 65.4914C113.838 68.4579 112.448 71.1217 110.635 73.4827C108.823 75.8438 106.617 77.8719 104.018 79.567C101.42 81.2016 98.4888 82.4124 95.2255 83.1994C99.1535 84.2286 102.719 85.7421 105.922 87.7399C109.185 89.7377 111.935 92.1593 114.171 95.0047C116.467 97.8501 118.22 101.059 119.428 104.631C120.697 108.202 121.332 112.016 121.332 116.073ZM75.2832 64.3109C75.2832 62.5552 74.9206 61.072 74.1954 59.8612C73.4702 58.5899 72.5637 57.5607 71.476 56.7737C70.4486 55.9867 69.3005 55.4115 68.0314 55.0483C66.8228 54.6851 65.735 54.5034 64.7681 54.5034C63.5595 54.5034 62.3811 54.6851 61.2329 55.0483C60.0847 55.4115 58.9667 55.8353 57.8789 56.3196L57.335 76.4794C58.725 76.4794 60.4473 76.3584 62.5019 76.1162C64.5566 75.874 66.5206 75.3595 68.394 74.5724C70.3278 73.7249 71.9594 72.5141 73.2889 70.94C74.6184 69.3055 75.2832 67.0957 75.2832 64.3109ZM62.4113 93.915C60.6588 93.915 58.9667 94.0966 57.335 94.4598L56.9725 115.164C57.8789 115.346 58.7552 115.528 59.6012 115.709C60.5077 115.83 61.3839 115.891 62.23 115.891C63.499 115.891 64.889 115.77 66.3997 115.528C67.9105 115.225 69.3307 114.68 70.6602 113.893C71.9896 113.046 73.0774 111.926 73.9234 110.533C74.8299 109.141 75.2832 107.294 75.2832 104.994C75.2832 102.693 74.8299 100.817 73.9234 99.3636C73.0774 97.9106 72.0199 96.7906 70.7508 96.0036C69.4817 95.156 68.0918 94.6112 66.581 94.369C65.0703 94.0663 63.6803 93.915 62.4113 93.915Z" fill="#F5A623"/>
<path d="M361.288 116.073C361.288 121.097 360.351 125.426 358.478 129.058C356.665 132.691 354.218 135.778 351.136 138.321C348.054 140.864 344.488 142.952 340.439 144.587C336.451 146.161 332.281 147.402 327.93 148.31C323.579 149.218 319.198 149.824 314.786 150.126C310.435 150.429 306.356 150.58 302.549 150.58C298.802 150.58 294.904 150.429 290.855 150.126C286.867 149.884 282.878 149.43 278.89 148.764C274.901 148.098 270.973 147.22 267.106 146.131C263.238 144.98 259.582 143.558 256.137 141.863L255.956 24.8994C259.34 23.507 262.936 22.2659 266.743 21.1762C270.55 20.0259 274.418 19.0875 278.346 18.3611C282.334 17.574 286.293 16.9989 290.221 16.6357C294.149 16.2119 297.956 16 301.642 16C305.933 16 310.254 16.2724 314.605 16.8173C319.016 17.3621 323.246 18.2702 327.295 19.5416C331.344 20.8129 335.121 22.4778 338.626 24.5361C342.131 26.534 345.183 29.0161 347.782 31.9826C350.441 34.949 352.495 38.3998 353.946 42.3349C355.456 46.27 356.212 50.8105 356.212 55.9564C356.212 59.3466 355.728 62.525 354.761 65.4914C353.794 68.4579 352.405 71.1217 350.592 73.4827C348.779 75.8438 346.573 77.8719 343.974 79.567C341.376 81.2016 338.445 82.4124 335.182 83.1994C339.11 84.2286 342.675 85.7421 345.878 87.7399C349.141 89.7377 351.891 92.1593 354.127 95.0047C356.423 97.8501 358.176 101.059 359.384 104.631C360.653 108.202 361.288 112.016 361.288 116.073ZM315.239 64.3109C315.239 62.5552 314.877 61.072 314.152 59.8612C313.426 58.5899 312.52 57.5607 311.432 56.7737C310.405 55.9867 309.257 55.4115 307.988 55.0483C306.779 54.6851 305.691 54.5034 304.724 54.5034C303.516 54.5034 302.337 54.6851 301.189 55.0483C300.041 55.4115 298.923 55.8353 297.835 56.3196L297.291 76.4794C298.681 76.4794 300.403 76.3584 302.458 76.1162C304.513 75.874 306.477 75.3595 308.35 74.5724C310.284 73.7249 311.916 72.5141 313.245 70.94C314.575 69.3055 315.239 67.0957 315.239 64.3109ZM302.367 93.915C300.615 93.915 298.923 94.0966 297.291 94.4598L296.929 115.164C297.835 115.346 298.711 115.528 299.557 115.709C300.464 115.83 301.34 115.891 302.186 115.891C303.455 115.891 304.845 115.77 306.356 115.528C307.867 115.225 309.287 114.68 310.616 113.893C311.946 113.046 313.034 111.926 313.88 110.533C314.786 109.141 315.239 107.294 315.239 104.994C315.239 102.693 314.786 100.817 313.88 99.3636C313.034 97.9106 311.976 96.7906 310.707 96.0036C309.438 95.156 308.048 94.6112 306.537 94.369C305.026 94.0663 303.637 93.915 302.367 93.915Z" fill="#F5A623"/>
<path d="M248.056 81.8925C248.056 87.8572 247.371 93.6253 245.999 99.1968C244.627 104.703 242.635 109.881 240.023 114.731C237.476 119.582 234.341 124.039 230.618 128.103C226.96 132.101 222.813 135.542 218.176 138.426C213.604 141.31 208.607 143.572 203.186 145.21C197.765 146.784 192.018 147.57 185.943 147.57C180.065 147.57 174.448 146.816 169.093 145.309C163.802 143.801 158.838 141.704 154.201 139.016C149.564 136.263 145.351 132.986 141.563 129.184C137.84 125.317 134.64 121.057 131.962 116.403C129.35 111.683 127.292 106.636 125.79 101.261C124.353 95.8867 123.635 90.2824 123.635 84.4488C123.635 78.7462 124.32 73.1748 125.692 67.7344C127.064 62.2285 129.023 57.0503 131.57 52.1999C134.183 47.3494 137.318 42.8922 140.975 38.8284C144.633 34.7645 148.715 31.2577 153.222 28.3081C157.793 25.3585 162.725 23.0644 168.015 21.4257C173.305 19.7871 178.89 18.9677 184.768 18.9677C194.238 18.9677 202.86 20.4425 210.632 23.3921C218.469 26.3417 225.131 30.5695 230.618 36.0754C236.169 41.5158 240.447 48.136 243.452 55.936C246.522 63.6705 248.056 72.3227 248.056 81.8925ZM204.558 84.4488C204.558 81.6303 204.133 78.9101 203.284 76.2882C202.5 73.6008 201.325 71.2411 199.757 69.2092C198.19 67.1117 196.23 65.4403 193.879 64.1949C191.593 62.884 188.948 62.2285 185.943 62.2285C182.874 62.2285 180.131 62.7856 177.714 63.8999C175.297 65.0142 173.207 66.5546 171.444 68.521C169.746 70.4218 168.44 72.6832 167.525 75.305C166.611 77.8613 166.154 80.5815 166.154 83.4656C166.154 86.2185 166.545 88.9715 167.329 91.7244C168.113 94.4774 169.289 96.9682 170.856 99.1968C172.424 101.425 174.35 103.228 176.636 104.604C178.988 105.981 181.698 106.669 184.768 106.669C187.838 106.669 190.581 106.079 192.997 104.899C195.479 103.654 197.569 102.015 199.267 99.9833C200.966 97.8858 202.272 95.4934 203.186 92.806C204.101 90.1186 204.558 87.3328 204.558 84.4488Z" fill="#F5A623"/>
<path d="M489 143.532L442.354 149.549L436.711 128.302H415.269L410.566 149.549L362.603 144.848L400.033 19.6216L452.322 16.9892L489 143.532ZM433.325 99.5333L430.202 73.521C429.637 68.816 422.808 68.8266 422.258 73.5333L419.219 99.5333H433.325Z" fill="#F5A623"/>
<path d="M139.106 261.492C139.106 266.517 138.17 270.846 136.296 274.478C134.483 278.11 132.036 281.198 128.954 283.741C125.872 286.283 122.306 288.372 118.258 290.007C114.269 291.581 110.099 292.822 105.748 293.73C101.397 294.638 97.0159 295.243 92.6044 295.546C88.2534 295.849 84.1743 296 80.3671 296C76.6204 296 72.7225 295.849 68.6736 295.546C64.6852 295.304 60.6967 294.85 56.7082 294.184C52.7198 293.518 48.7917 292.64 44.9241 291.55C41.0565 290.4 37.4004 288.977 33.9558 287.282L33.7745 170.319C37.1587 168.927 40.7544 167.686 44.5615 166.596C48.3687 165.446 52.2363 164.507 56.1643 163.781C60.1528 162.994 64.1111 162.419 68.0391 162.055C71.9671 161.632 75.7743 161.42 79.4606 161.42C83.7513 161.42 88.0721 161.692 92.4232 162.237C96.8346 162.782 101.065 163.69 105.114 164.961C109.163 166.233 112.94 167.897 116.445 169.956C119.95 171.954 123.001 174.436 125.6 177.402C128.259 180.369 130.314 183.819 131.764 187.755C133.275 191.69 134.03 196.23 134.03 201.376C134.03 204.766 133.547 207.945 132.58 210.911C131.613 213.878 130.223 216.541 128.41 218.902C126.597 221.263 124.391 223.291 121.793 224.987C119.194 226.621 116.263 227.832 113 228.619C116.928 229.648 120.494 231.162 123.696 233.16C126.96 235.157 129.709 237.579 131.945 240.424C134.242 243.27 135.994 246.478 137.203 250.05C138.472 253.622 139.106 257.436 139.106 261.492ZM93.0577 209.731C93.0577 207.975 92.6951 206.492 91.9699 205.281C91.2447 204.009 90.3383 202.98 89.2505 202.193C88.2232 201.406 87.075 200.831 85.8059 200.468C84.5973 200.105 83.5095 199.923 82.5426 199.923C81.334 199.923 80.1556 200.105 79.0074 200.468C77.8592 200.831 76.7412 201.255 75.6535 201.739L75.1096 221.899C76.4995 221.899 78.2218 221.778 80.2765 221.536C82.3311 221.294 84.2951 220.779 86.1685 219.992C88.1023 219.144 89.734 217.934 91.0634 216.36C92.3929 214.725 93.0577 212.515 93.0577 209.731ZM80.1858 239.335C78.4333 239.335 76.7412 239.516 75.1096 239.879L74.747 260.584C75.6535 260.766 76.5297 260.947 77.3757 261.129C78.2822 261.25 79.1585 261.311 80.0045 261.311C81.2736 261.311 82.6635 261.19 84.1743 260.947C85.6851 260.645 87.1052 260.1 88.4347 259.313C89.7642 258.465 90.8519 257.345 91.698 255.953C92.6044 254.56 93.0577 252.714 93.0577 250.413C93.0577 248.113 92.6044 246.236 91.698 244.783C90.8519 243.33 89.7944 242.21 88.5253 241.423C87.2563 240.576 85.8663 240.031 84.3556 239.789C82.8448 239.486 81.4549 239.335 80.1858 239.335Z" fill="#F5A623"/>
<path d="M356.679 288.951L310.032 294.968L304.389 273.721H282.947L278.245 294.968L230.282 290.268L267.712 165.041L320.001 162.409L356.679 288.951ZM301.004 244.953L297.878 220.204C297.288 215.531 290.514 215.542 289.939 220.217L286.897 244.953H301.004Z" fill="#F5A623"/>
<path d="M230.282 165.377C229.93 170.922 229.607 176.409 229.314 181.837C229.021 187.265 228.64 192.752 228.17 198.298L190.866 200.245L189.986 211.395H216.205L214.269 238.829L187.874 239.714L186.994 252.635H224.299C223.947 259.125 223.566 265.585 223.155 272.016C222.803 278.388 222.481 284.789 222.187 291.22L146.347 292.99L149.162 165.377H230.282Z" fill="#F5A623"/>
<path d="M472.213 208.454C472.213 213.223 471.787 217.565 470.936 221.478C470.145 225.331 468.868 228.877 467.105 232.118C465.341 235.359 463.061 238.355 460.264 241.107C457.466 243.859 454.091 246.488 450.139 248.995L471.848 287.886L430.801 295.957L416.754 256.884L405.443 257.25L403.801 295.407H364.578C364.882 281.465 365.156 267.585 365.399 253.765C365.703 239.945 366.038 226.065 366.403 212.123C366.524 205.091 366.646 198.12 366.767 191.21C366.889 184.3 367.132 177.329 367.497 170.297C371.754 168.707 375.95 167.392 380.085 166.353C384.22 165.313 388.355 164.518 392.49 163.968C396.686 163.357 400.913 162.959 405.169 162.776C409.487 162.531 413.896 162.409 418.396 162.409C425.328 162.409 432.017 163.387 438.463 165.344C444.97 167.24 450.716 170.114 455.703 173.966C460.689 177.818 464.672 182.618 467.652 188.366C470.693 194.114 472.213 200.81 472.213 208.454ZM431.348 211.389C431.348 208.821 430.983 206.466 430.254 204.326C429.585 202.186 428.551 200.352 427.152 198.823C425.815 197.233 424.112 196.01 422.044 195.154C420.038 194.237 417.666 193.778 414.929 193.778C413.713 193.778 412.527 193.87 411.372 194.053C410.217 194.176 409.092 194.39 407.997 194.695L406.538 228.816H408.727C411.342 228.816 413.987 228.48 416.663 227.807C419.399 227.135 421.831 226.095 423.96 224.689C426.149 223.282 427.912 221.478 429.25 219.277C430.649 217.076 431.348 214.446 431.348 211.389Z" fill="#F5A623"/>
</svg>
