<svg width="546" height="925" viewBox="0 0 546 925" fill="none" xmlns="http://www.w3.org/2000/svg">
<path d="M0 738.301V604.006C0 593.923 6.84576 585.134 16.7042 583.019C32.6887 579.59 56.6911 575.101 72.8462 575.094C92.4347 575.085 116.814 577.72 128.041 579.073C131.928 579.542 135.294 581.929 137.086 585.411L137.287 585.801C138.46 588.08 141.444 588.684 143.41 587.039L147.463 583.65C149.622 581.845 152.347 580.856 155.161 580.856H238.265C241.179 580.856 243.993 581.916 246.182 583.838L250.699 587.803C252.269 589.182 254.635 589.12 256.131 587.661L259.611 584.266C261.852 582.08 264.859 580.856 267.991 580.856H383.252C385.8 580.856 388.282 581.667 390.338 583.171L397.152 588.157C398.783 589.35 401.047 589.139 402.43 587.667L407.307 582.473C409.482 580.157 412.487 578.797 415.663 578.694L485.803 576.401C493.195 576.159 499.789 581.016 501.752 588.147L544.478 743.384C545.388 746.689 544.091 750.207 541.253 752.13L516.589 768.845C514.936 769.965 514.348 772.127 515.138 773.96C518.384 781.499 525.845 801.147 523.54 817.827C521.722 830.975 514.685 842.04 511.704 846.239C510.894 847.38 510.647 848.85 511.122 850.167L528.682 898.909C531.268 906.084 526.591 913.819 519.035 914.863L451.478 924.199C447.784 924.71 444.028 923.914 440.859 921.95L434.962 918.295C433.442 917.353 431.482 917.534 430.16 918.739L427.883 920.814C424.936 923.5 421.092 924.989 417.105 924.989H390.332C385.952 924.989 381.775 923.134 378.838 919.883C377.301 918.182 374.629 918.182 373.091 919.883C370.154 923.134 365.978 924.989 361.597 924.989H334.868C329.919 924.989 325.249 922.699 322.218 918.786L321.806 918.254C321.049 917.276 319.881 916.703 318.644 916.703H300.117C298.888 916.703 297.742 917.327 297.075 918.36C294.408 922.493 289.826 924.989 284.908 924.989H254.913C250.58 924.989 246.432 923.231 243.417 920.118L240.112 916.703L239.013 918.251C236.012 922.478 231.15 924.989 225.966 924.989H166.952C164.158 924.989 161.412 924.257 158.989 922.866L148.249 916.703L138.13 922.734C135.652 924.21 132.822 924.989 129.939 924.989H34.7169C25.8804 924.989 18.7169 917.891 18.7169 909.055V772.784C18.7169 771.448 19.4451 770.191 19.8103 768.906C20.2593 767.326 20.2028 765.237 20.1295 764.135C20.0971 763.647 19.8633 763.2 19.4986 762.874L5.34394 750.236C1.94394 747.201 0 742.859 0 738.301Z" fill="#40FF00"/>
<path d="M123.484 9.71942C155.951 -8.78253 193.056 0.265105 218.677 27.2526C218.747 27.2378 250.243 20.5446 270.707 20.5544C291.106 20.5642 322.505 27.245 322.541 27.2526C322.61 27.1894 348.599 3.42807 369.447 0.656919C404.683 -4.02644 438.676 19.3148 447.888 53.2575C456.107 83.5438 444.062 114.925 421.479 135.408C424.217 157.611 431.923 178.355 435.668 200.617C440.83 231.304 431.579 255.668 412.215 280.404C436.695 309.629 459.233 342.123 469.37 379.299C477.123 407.729 482.367 443.613 466.61 470.512C451.693 495.979 420.493 508.337 395.858 504.004L388.565 527.841C404.187 537.989 414.58 549.117 414.58 572.364C414.58 577.863 410.936 585.094 407.499 590.689C403.984 596.412 397.734 599.665 391.034 600.142C367.067 601.85 307.203 605.806 265.77 605.908C258.905 605.925 247.116 599.557 239.674 599.371C222.443 598.94 209.09 603.346 189.391 603.393C175.248 603.427 155.658 601.463 145.068 600.267C140.164 599.713 135.518 597.625 132.599 593.645C128.536 588.107 123.56 578.961 124.273 568.03C125.483 549.473 132.672 536.477 148.317 526.265L143.39 502.23C143.322 502.24 124.307 504.994 112.645 502.23C81.6207 494.877 64.8231 470.647 61.5997 440.568C58.6441 412.987 71.3117 364.026 88.5997 332.61C100.971 310.128 127.543 279.708 127.623 279.616C127.623 279.616 115.812 266.026 110.871 255.778C95.7815 224.48 100.82 195.1 112.842 158.26C113.433 147.819 115.112 143.515 116.981 136.393C116.976 136.389 109.302 129.133 103.974 122.406C93.2137 108.82 88.1151 91.0582 88.2061 73.9431C88.3449 47.8664 100.364 22.8954 123.484 9.71942Z" fill="#40FF00"/>
<path fill-rule="evenodd" clip-rule="evenodd" d="M270.164 40.9537C245.31 40.9537 207.664 52.9536 207.664 52.9536C200.164 28.4521 160.502 10.6788 131.664 28.4521C114.745 38.8796 105.662 58.3027 107.165 77.9521C108.795 99.2748 119.164 113.452 140.165 126.952C136.409 135.828 135.451 145.635 134.743 152.875C134.415 156.239 134.14 159.049 133.664 160.952C123.579 190.32 114.057 225.359 131.664 253.452C147.243 278.309 178.849 298.64 207.164 306.579C237.148 314.987 273.439 317.444 307.164 311.927C333.164 302.452 348.055 281.952 346.164 252.452C345.515 242.334 343.606 236.566 339.164 227.452C334.594 218.076 328.024 209.303 320.164 202.452C317.44 200.078 315.152 198.657 312.728 197.151C311.01 196.084 309.223 194.974 307.164 193.452C301.447 189.227 297.794 186.119 293.287 182.284C291.723 180.954 290.056 179.535 288.164 177.952C263.664 157.452 247.164 137.452 247.164 102.454C247.164 76.6517 261.629 57.555 281.664 41.6412C277.664 41.2075 273.779 40.9537 270.164 40.9537Z" fill="#40FF00"/>
<path d="M281.664 41.6383C277.664 41.2046 273.779 40.9508 270.164 40.9508C245.31 40.9508 207.664 52.9507 207.664 52.9507C200.164 28.4492 160.502 10.6759 131.664 28.4492C114.745 38.8767 105.662 58.2998 107.165 77.9492C108.795 99.2719 119.164 113.449 140.165 126.949C136.409 135.825 135.451 145.632 134.743 152.872C134.415 156.236 134.14 159.046 133.664 160.949C123.579 190.317 114.057 225.356 131.664 253.449C147.243 278.306 178.849 298.637 207.164 306.576C237.148 314.984 273.439 317.441 307.164 311.924M281.664 41.6383C305.171 44.1873 332.664 52.9507 332.664 52.9507C332.664 52.9507 344.758 33.3323 357.164 26.9508C374.181 18.1978 389.709 17.1823 406.164 26.9508C432.331 42.4848 436.969 77.1139 423.164 102.451C416.491 114.697 397.664 127.451 397.664 127.451C401.664 135.449 403.664 154.949 403.664 160.949C416.701 191.214 425.607 222.525 407.664 253.449C397.847 270.369 374.973 287.06 357.664 295.949C342.465 303.755 325.18 308.977 307.164 311.924M281.664 41.6383C261.629 57.5521 247.164 76.6488 247.164 102.451C247.164 137.449 263.664 157.449 288.164 177.949C290.056 179.532 291.723 180.951 293.287 182.281C297.794 186.116 301.447 189.224 307.164 193.449C309.223 194.971 311.01 196.081 312.728 197.148C315.152 198.654 317.44 200.075 320.164 202.449C328.024 209.3 334.594 218.073 339.164 227.449C343.606 236.563 345.515 242.331 346.164 252.449C348.055 281.949 333.164 302.449 307.164 311.924" stroke="#1A2310" stroke-width="4"/>
<path fill-rule="evenodd" clip-rule="evenodd" d="M332.664 52.9507C332.664 52.9507 305.171 44.1873 281.664 41.6383C261.629 57.5521 247.164 76.6488 247.164 102.451C247.164 137.449 263.664 157.449 288.164 177.949C290.056 179.532 291.723 180.951 293.287 182.281C297.794 186.116 301.447 189.224 307.164 193.449C309.223 194.971 311.01 196.081 312.728 197.148C315.152 198.654 317.44 200.075 320.164 202.449C328.024 209.3 334.594 218.073 339.164 227.449C343.606 236.563 345.515 242.331 346.164 252.449C348.055 281.949 333.164 302.449 307.164 311.924C325.18 308.977 342.465 303.755 357.664 295.949C374.973 287.06 397.847 270.369 407.664 253.449C425.607 222.525 416.701 191.214 403.664 160.949C403.664 154.949 401.664 135.449 397.664 127.451C397.664 127.451 416.491 114.697 423.164 102.451C436.969 77.1139 432.331 42.4848 406.164 26.9508C389.709 17.1823 374.181 18.1978 357.164 26.9508C344.758 33.3323 332.664 52.9507 332.664 52.9507Z" fill="#A5593F"/>
<path d="M281.664 41.6383C277.664 41.2046 273.779 40.9508 270.164 40.9508C245.31 40.9508 207.664 52.9507 207.664 52.9507C200.164 28.4492 160.502 10.6759 131.664 28.4492C114.745 38.8767 105.662 58.2998 107.165 77.9492C108.795 99.2719 119.164 113.449 140.165 126.949C134.664 139.949 135.164 154.949 133.664 160.949C123.579 190.317 114.057 225.356 131.664 253.449C147.243 278.306 178.849 298.637 207.164 306.576C237.148 314.984 273.439 317.441 307.164 311.924M281.664 41.6383C305.171 44.1873 332.664 52.9507 332.664 52.9507C332.664 52.9507 344.758 33.3323 357.164 26.9508C374.181 18.1978 389.709 17.1823 406.164 26.9508C432.331 42.4848 436.969 77.1139 423.164 102.451C416.491 114.697 397.664 127.451 397.664 127.451C401.664 135.449 403.664 154.949 403.664 160.949C416.701 191.214 425.607 222.525 407.664 253.449C397.847 270.369 374.973 287.06 357.664 295.949C342.465 303.755 325.18 308.977 307.164 311.924" stroke="#1A2310" stroke-width="8"/>
<path d="M281.664 41.6383C277.664 41.2046 273.779 40.9508 270.164 40.9508C245.31 40.9508 207.664 52.9507 207.664 52.9507C200.164 28.4492 160.502 10.6759 131.664 28.4492C114.745 38.8767 105.662 58.2998 107.165 77.9492C108.795 99.2719 119.164 113.449 140.165 126.949C134.664 139.949 135.164 154.949 133.664 160.949C123.579 190.317 114.057 225.356 131.664 253.449C147.243 278.306 178.849 298.637 207.164 306.576C237.148 314.984 273.439 317.441 307.164 311.924M281.664 41.6383C305.171 44.1873 332.664 52.9507 332.664 52.9507C332.664 52.9507 344.758 33.3323 357.164 26.9508C374.181 18.1978 389.709 17.1823 406.164 26.9508C432.331 42.4848 436.969 77.1139 423.164 102.451C416.491 114.697 397.664 127.451 397.664 127.451C401.664 135.449 403.664 154.949 403.664 160.949C416.701 191.214 425.607 222.525 407.664 253.449C397.847 270.369 374.973 287.06 357.664 295.949C342.465 303.755 325.18 308.977 307.164 311.924M281.664 41.6383C261.629 57.5521 247.164 76.6488 247.164 102.451C247.164 137.449 263.664 157.449 288.164 177.949C290.056 179.532 291.723 180.951 293.287 182.281C297.794 186.116 301.447 189.224 307.164 193.449C309.223 194.971 311.01 196.081 312.728 197.148C315.152 198.654 317.44 200.075 320.164 202.449C328.024 209.3 334.594 218.073 339.164 227.449C343.606 236.563 345.515 242.331 346.164 252.449C348.055 281.949 333.164 302.449 307.164 311.924" stroke="#1A2310" stroke-width="4"/>
<path fill-rule="evenodd" clip-rule="evenodd" d="M256.664 506.449H280.664C280.664 506.449 229.164 506.449 231.164 453.449C232.428 419.949 270.164 409.449 270.164 409.449C270.164 409.449 308.164 398.449 308.164 364.949C308.164 324.188 277.506 316.315 263.271 314.857C258.967 314.416 256.164 314.561 256.164 314.561C248.349 314.104 240.556 313.218 232.664 311.949C214.772 309.073 198.932 305.279 182.664 296.949C170.946 290.949 156.665 280.449 156.665 280.449C127.926 308.461 104.095 339.692 91.1646 377.949C81.1637 407.539 69.797 461.901 103.99 479.949C122.553 489.747 142.634 486.942 157.665 472.449C157.665 472.449 161.261 490.746 163.664 502.449C166.876 518.093 172.164 542.449 172.164 542.449C172.164 542.449 154.941 547.283 149.164 555.949C138.164 572.449 145.664 589.535 157.665 593.449C182.033 601.397 244.163 600.245 256.664 577.449C259.258 572.72 258.247 549.05 257.388 528.952C257.012 520.127 256.664 511.991 256.664 506.449Z" fill="#40FF00"/>
<path d="M382.665 472.449C398.078 486.671 414.366 490.394 432.665 479.949C466.763 460.486 458.366 408.478 448.165 377.949C435.794 340.93 408.572 308.857 382.165 280.949C366.855 292.03 349.923 301.114 331.664 306.449C315.987 311.03 298.451 313.343 282.164 314.449C275.788 314.882 269.511 315.01 263.271 314.857M382.665 472.449C381.991 462.881 380.94 447.949 380.94 447.949M382.665 472.449C380.068 484.196 378.535 490.766 375.664 502.449C371.81 518.133 365.164 542.449 365.164 542.449M263.271 314.857C277.506 316.315 308.164 324.188 308.164 364.949C308.164 398.449 270.164 409.449 270.164 409.449C270.164 409.449 232.428 419.949 231.164 453.449C229.164 506.449 280.664 506.449 280.664 506.449M263.271 314.857C258.967 314.416 256.164 314.561 256.164 314.561M263.271 314.857C260.898 314.798 258.53 314.7 256.164 314.561M380.94 447.949C394.154 416.047 387.804 378.086 374.664 345.949M380.94 447.949C377.017 457.42 371.37 466.357 363.664 474.449M365.164 542.449C365.164 542.449 357.664 542.162 350.664 542.449C337.692 542.981 324.664 549.449 324.664 549.449M365.164 542.449C365.164 542.449 376.745 546.906 382.665 551.949C396.164 563.449 399.197 579.344 384.664 589.535C372.664 597.949 347.113 598.179 332.664 596.949C316.705 595.591 290.664 589.949 282.164 577.449C278.664 561.449 280.664 527.227 280.664 506.449M157.665 472.449L156.089 447.949M157.665 472.449C157.665 472.449 161.261 490.746 163.664 502.449C166.876 518.093 172.164 542.449 172.164 542.449M157.665 472.449C142.634 486.942 122.553 489.747 103.99 479.949C69.797 461.901 81.1637 407.539 91.1646 377.949C104.095 339.692 127.926 308.461 156.665 280.449C156.665 280.449 170.946 290.949 182.664 296.949C198.932 305.279 214.772 309.073 232.664 311.949C240.556 313.218 248.349 314.104 256.164 314.561M156.089 447.949C142.811 416.936 152.335 377.827 164.164 345.949M156.089 447.949C160.286 457.753 166.762 466.748 176.164 474.449M172.164 542.449C172.164 542.449 154.941 547.283 149.164 555.949C138.164 572.449 145.664 589.535 157.665 593.449C182.033 601.397 244.163 600.245 256.664 577.449C259.258 572.72 258.247 549.05 257.388 528.952C257.012 520.127 256.664 511.991 256.664 506.449M172.164 542.449C172.164 542.449 181.024 541.945 186.664 542.449C197.325 543.402 213.164 549.449 213.164 549.449M280.664 506.449H256.664M280.664 506.449C280.664 506.449 294.647 505.116 303.164 502.449C309.428 500.488 318.664 495.949 318.664 495.949M256.664 506.449C256.664 506.449 241.496 505.954 232.664 502.449C227.71 500.483 220.664 495.949 220.664 495.949" stroke="#1A2310" stroke-width="4"/>
<path fill-rule="evenodd" clip-rule="evenodd" d="M432.665 479.949C466.763 460.486 458.366 408.478 448.165 377.949C435.794 340.93 408.572 308.857 382.165 280.949C366.855 292.03 349.923 301.114 331.664 306.449C315.987 311.03 298.451 313.343 282.164 314.449C275.788 314.882 269.511 315.01 263.271 314.857C258.967 314.416 256.164 314.561 256.164 314.561C258.53 314.7 260.898 314.798 263.271 314.857C277.506 316.315 308.164 324.188 308.164 364.949C308.164 398.449 270.164 409.449 270.164 409.449C270.164 409.449 232.428 419.949 231.164 453.449C229.164 506.449 280.664 506.449 280.664 506.449C280.664 511.674 280.538 517.749 280.404 524.17C280.006 543.286 279.544 565.472 282.164 577.449C290.664 589.949 316.705 595.591 332.664 596.949C347.113 598.179 372.664 597.949 384.664 589.535C399.197 579.344 396.164 563.449 382.665 551.949C376.745 546.906 365.164 542.449 365.164 542.449C365.164 542.449 371.81 518.133 375.664 502.449C378.535 490.766 380.068 484.196 382.665 472.449C398.078 486.671 414.366 490.394 432.665 479.949Z" fill="#A5593F"/>
<path d="M382.665 472.449C398.078 486.671 414.366 490.394 432.665 479.949C466.763 460.486 458.366 408.478 448.165 377.949C435.794 340.93 408.572 308.857 382.165 280.949C366.855 292.03 349.923 301.114 331.664 306.449C315.987 311.03 298.451 313.343 282.164 314.449C275.788 314.882 269.511 315.01 263.271 314.857M382.665 472.449C381.991 462.881 380.94 447.949 380.94 447.949M382.665 472.449C380.068 484.196 378.535 490.766 375.664 502.449C371.81 518.133 365.164 542.449 365.164 542.449M263.271 314.857C258.967 314.416 256.164 314.561 256.164 314.561M263.271 314.857C260.898 314.798 258.53 314.7 256.164 314.561M380.94 447.949C394.154 416.047 387.804 378.086 374.664 345.949M380.94 447.949C377.017 457.42 371.37 466.357 363.664 474.449M365.164 542.449C365.164 542.449 357.664 542.162 350.664 542.449C337.692 542.981 324.664 549.449 324.664 549.449M365.164 542.449C365.164 542.449 376.745 546.906 382.665 551.949C396.164 563.449 399.197 579.344 384.664 589.535C372.664 597.949 347.113 598.179 332.664 596.949C316.705 595.591 290.664 589.949 282.164 577.449C279.544 565.472 280.006 543.286 280.404 524.17C280.538 517.749 280.664 511.674 280.664 506.449M157.665 472.449L156.089 447.949M157.665 472.449C157.665 472.449 161.261 490.746 163.664 502.449C166.876 518.093 172.164 542.449 172.164 542.449M157.665 472.449C142.634 486.942 122.553 489.747 103.99 479.949C69.797 461.901 81.1637 407.539 91.1646 377.949C104.095 339.692 127.926 308.461 156.665 280.449C156.665 280.449 170.946 290.949 182.664 296.949C198.932 305.279 214.772 309.073 232.664 311.949C240.556 313.218 248.349 314.104 256.164 314.561M156.089 447.949C142.811 416.936 152.335 377.827 164.164 345.949M156.089 447.949C160.286 457.753 166.762 466.748 176.164 474.449M172.164 542.449C172.164 542.449 154.941 547.283 149.164 555.949C138.164 572.449 145.664 589.535 157.665 593.449C182.033 601.397 244.163 600.245 256.664 577.449C260.396 570.643 256.664 524.612 256.664 506.449M172.164 542.449C172.164 542.449 181.024 541.945 186.664 542.449C197.325 543.402 213.164 549.449 213.164 549.449M280.664 506.449H256.664M280.664 506.449C280.664 506.449 294.647 505.116 303.164 502.449C309.428 500.488 318.664 495.949 318.664 495.949M256.664 506.449C256.664 506.449 241.496 505.954 232.664 502.449C227.71 500.483 220.664 495.949 220.664 495.949" stroke="#1A2310" stroke-width="8" stroke-linecap="round"/>
<path d="M382.665 472.449C398.078 486.671 414.366 490.394 432.665 479.949C466.763 460.486 458.366 408.478 448.165 377.949C435.794 340.93 408.572 308.857 382.165 280.949C366.855 292.03 349.923 301.114 331.664 306.449C315.987 311.03 298.451 313.343 282.164 314.449C275.788 314.882 269.511 315.01 263.271 314.857M382.665 472.449C381.991 462.881 380.94 447.949 380.94 447.949M382.665 472.449C380.068 484.196 378.535 490.766 375.664 502.449C371.81 518.133 365.164 542.449 365.164 542.449M263.271 314.857C277.506 316.315 308.164 324.188 308.164 364.949C308.164 398.449 270.164 409.449 270.164 409.449C270.164 409.449 232.428 419.949 231.164 453.449C229.164 506.449 280.664 506.449 280.664 506.449M263.271 314.857C258.967 314.416 256.164 314.561 256.164 314.561M263.271 314.857C260.898 314.798 258.53 314.7 256.164 314.561M380.94 447.949C394.154 416.047 387.804 378.086 374.664 345.949M380.94 447.949C377.017 457.42 371.37 466.357 363.664 474.449M365.164 542.449C365.164 542.449 357.664 542.162 350.664 542.449C337.692 542.981 324.664 549.449 324.664 549.449M365.164 542.449C365.164 542.449 376.745 546.906 382.665 551.949C396.164 563.449 399.197 579.344 384.664 589.535C372.664 597.949 347.113 598.179 332.664 596.949C316.705 595.591 290.664 589.949 282.164 577.449C279.544 565.472 280.006 543.286 280.404 524.17C280.538 517.749 280.664 511.674 280.664 506.449M157.665 472.449L156.089 447.949M157.665 472.449C157.665 472.449 161.261 490.746 163.664 502.449C166.876 518.093 172.164 542.449 172.164 542.449M157.665 472.449C142.634 486.942 122.553 489.747 103.99 479.949C69.797 461.901 81.1637 407.539 91.1646 377.949C104.095 339.692 127.926 308.461 156.665 280.449C156.665 280.449 170.946 290.949 182.664 296.949C198.932 305.279 214.772 309.073 232.664 311.949C240.556 313.218 248.349 314.104 256.164 314.561M156.089 447.949C142.811 416.936 152.335 377.827 164.164 345.949M156.089 447.949C160.286 457.753 166.762 466.748 176.164 474.449M172.164 542.449C172.164 542.449 154.941 547.283 149.164 555.949C138.164 572.449 145.664 589.535 157.665 593.449C182.033 601.397 244.163 600.245 256.664 577.449C260.396 570.643 256.664 524.612 256.664 506.449M172.164 542.449C172.164 542.449 181.024 541.945 186.664 542.449C197.325 543.402 213.164 549.449 213.164 549.449M280.664 506.449H256.664M280.664 506.449C280.664 506.449 294.647 505.116 303.164 502.449C309.428 500.488 318.664 495.949 318.664 495.949M256.664 506.449C256.664 506.449 241.496 505.954 232.664 502.449C227.71 500.483 220.664 495.949 220.664 495.949" stroke="#1A2310" stroke-width="4" stroke-linecap="round"/>
<path d="M371.164 81.4487C366.894 76.6951 360.089 71.8684 356.522 69.4814C355.118 68.5421 354.408 66.8494 354.998 65.2664C356.622 60.9013 360.986 52.3108 371.164 47.9478C382.184 43.2241 393.198 47.0676 400.664 56.4487C407.061 64.4866 408 73.105 404.664 82.4472C401.073 92.5038 392.065 97.9165 387.274 100.168C385.514 100.996 383.503 100.198 382.552 98.5015C380.134 94.1895 375.399 86.1633 371.164 81.4487Z" fill="#40FF00" stroke="#1A2310" stroke-width="8"/>
<path d="M167.551 81.4487C171.821 76.6951 178.626 71.8684 182.193 69.4814C183.597 68.5421 184.306 66.8494 183.717 65.2664C182.093 60.9013 177.729 52.3108 167.551 47.9478C156.531 43.2241 145.517 47.0676 138.051 56.4487C131.654 64.4866 130.715 73.105 134.051 82.4472C137.642 92.5038 146.65 97.9165 151.441 100.168C153.201 100.996 155.212 100.198 156.163 98.5015C158.581 94.1895 163.316 86.1633 167.551 81.4487Z" fill="#A5593F" stroke="#1A2310" stroke-width="9"/>
<path d="M346.164 252.448C343.022 213.661 305.568 181.522 267.164 182.948C230.581 184.306 196.333 215.447 193.664 252.448C191.756 278.899 206.592 302.943 232.164 311.448C256.665 316.449 286.165 316.449 309.164 311.448C333.843 302.692 348.246 278.152 346.164 252.448Z" fill="#A5593F" stroke="#1A2310" stroke-width="4"/>
<path d="M252.664 271.949C278.164 273.449 295 274.5 311.5 253" stroke="#1A2310" stroke-width="6" stroke-linecap="round"/>
<path d="M368.164 156.949C369.269 156.949 370.164 157.845 370.164 158.949C370.164 160.054 369.269 160.949 368.164 160.949H356.07C355.871 163.087 355.352 165.186 354.527 167.177C353.447 169.785 351.864 172.156 349.867 174.152C347.871 176.149 345.5 177.732 342.892 178.812C340.283 179.893 337.487 180.449 334.664 180.449C331.841 180.449 329.045 179.893 326.437 178.812C323.828 177.732 321.457 176.149 319.461 174.152C317.464 172.156 315.881 169.785 314.801 167.177C313.976 165.186 313.458 163.087 313.258 160.949H304.164C303.059 160.949 302.164 160.054 302.164 158.949C302.164 157.845 303.059 156.949 304.164 156.949H368.164Z" fill="#1A2310"/>
<path d="M171.163 156.949C170.059 156.949 169.163 157.845 169.163 158.949C169.163 160.053 170.059 160.949 171.163 160.949H183.258C183.458 163.087 183.975 165.186 184.8 167.177C185.88 169.785 187.465 172.155 189.461 174.151C191.457 176.148 193.827 177.732 196.436 178.812C199.044 179.893 201.84 180.449 204.663 180.449C207.486 180.449 210.282 179.893 212.891 178.812C215.499 177.732 217.87 176.148 219.866 174.151C221.863 172.155 223.446 169.785 224.526 167.177C225.351 165.186 225.87 163.087 226.069 160.949H235.163C236.267 160.949 237.163 160.054 237.163 158.949C237.163 157.845 236.268 156.949 235.163 156.949H171.163Z" fill="#1A2310"/>
<path d="M301.841 213.511C298.905 200.007 281.6 197.212 270.341 197.011C258.922 196.807 239.234 199.398 236.341 213.511C232.983 229.887 255.173 246.062 270.341 245.011C284.684 244.017 305.24 229.143 301.841 213.511Z" fill="#1A2310" stroke="#1A2310"/>
<path d="M279.898 214.547C284.9 215.08 289.196 213.257 289.492 210.477C289.788 207.696 285.973 205.01 280.97 204.477C275.968 203.944 271.672 205.766 271.376 208.547C271.08 211.328 274.895 214.014 279.898 214.547Z" fill="#D9D9D9"/>
<path d="M16 736.929V619.625C16 609.783 22.5287 601.135 32.1248 598.946C45.0856 595.991 63.3923 592.495 77.5 592.488C97.0499 592.48 125.235 600.353 136.047 603.607C138.93 604.475 142.02 604.293 144.758 603.042L155.624 598.075C157.19 597.359 158.891 596.988 160.613 596.988H238.904C241.559 596.988 244.14 597.869 246.241 599.493L251.294 603.397C252.852 604.601 255.055 604.492 256.486 603.14L259.531 600.264C261.759 598.16 264.707 596.988 267.771 596.988H374.181C376.665 596.988 379.089 597.76 381.117 599.196L387.465 603.692C388.956 604.749 390.974 604.66 392.367 603.476L396.859 599.658C398.895 597.928 401.45 596.926 404.119 596.812L469.482 594.023C476.835 593.709 483.453 598.45 485.52 605.513L524.689 739.303C525.746 742.914 524.145 746.773 520.842 748.574L496.916 761.625C495.014 762.662 494.268 765.02 495.169 766.99C498.945 775.253 507.654 796.401 505.5 811.488C503.742 823.803 493.695 839.436 489.927 844.951C489.067 846.21 488.949 847.844 489.658 849.195L507.2 882.624C511.024 889.912 506.544 898.798 498.411 900.058L449.719 907.602C446.023 908.175 442.244 907.435 439.037 905.511L434.01 902.494C432.515 901.597 430.612 901.772 429.305 902.925L427.536 904.486C424.613 907.065 420.849 908.488 416.95 908.488H388.347C384.298 908.488 380.432 906.808 377.669 903.848C376.226 902.302 373.774 902.302 372.331 903.848C369.568 906.808 365.702 908.488 361.653 908.488H333.184C328.327 908.488 323.734 906.281 320.7 902.488C319.942 901.54 318.793 900.988 317.579 900.988H300.303C299.177 900.988 298.125 901.551 297.5 902.488C295.001 906.237 290.794 908.488 286.289 908.488H254.627C250.384 908.488 246.314 906.803 243.314 903.802L240.5 900.988L239.795 901.95C236.781 906.06 231.989 908.488 226.892 908.488H166.646C163.927 908.488 161.253 907.795 158.876 906.475L149 900.988L139.711 906.347C137.28 907.75 134.522 908.488 131.716 908.488H49.5C40.6634 908.488 33.5 901.381 33.5 892.545V764.656C33.5 763.299 34.1874 762.041 35.3493 761.34L35.5537 761.217C36.864 760.429 36.8818 758.517 35.5708 757.731L23.7681 750.649C18.9488 747.758 16 742.549 16 736.929Z" fill="#1A2310" stroke="#1A2310"/>
<path d="M136.832 713.061C136.832 718.086 135.895 722.414 134.022 726.047C132.209 729.679 129.761 732.767 126.679 735.309C123.597 737.852 120.032 739.941 115.983 741.575C111.995 743.149 107.825 744.39 103.474 745.298C99.1227 746.207 94.7414 746.812 90.3299 747.115C85.9789 747.417 81.8997 747.569 78.0926 747.569C74.3458 747.569 70.448 747.417 66.3991 747.115C62.4106 746.872 58.4222 746.418 54.4337 745.752C50.4452 745.087 46.5172 744.209 42.6496 743.119C38.782 741.969 35.1259 740.546 31.6813 738.851L31.5 621.888C34.8842 620.495 38.4798 619.254 42.287 618.164C46.0942 617.014 49.9618 616.076 53.8898 615.349C57.8783 614.562 61.8365 613.987 65.7646 613.624C69.6926 613.2 73.4998 612.988 77.1861 612.988C81.4767 612.988 85.7976 613.261 90.1486 613.806C94.5601 614.35 98.7903 615.259 102.839 616.53C106.888 617.801 110.665 619.466 114.17 621.524C117.675 623.522 120.727 626.004 123.325 628.971C125.984 631.937 128.039 635.388 129.489 639.323C131 643.258 131.756 647.799 131.756 652.945C131.756 656.335 131.272 659.513 130.305 662.48C129.338 665.446 127.948 668.11 126.135 670.471C124.323 672.832 122.117 674.86 119.518 676.555C116.92 678.19 113.989 679.401 110.725 680.188C114.654 681.217 118.219 682.73 121.422 684.728C124.685 686.726 127.435 689.148 129.671 691.993C131.967 694.838 133.72 698.047 134.928 701.619C136.197 705.191 136.832 709.005 136.832 713.061ZM90.7832 661.299C90.7832 659.544 90.4206 658.06 89.6954 656.849C88.9702 655.578 88.0637 654.549 86.976 653.762C85.9486 652.975 84.8005 652.4 83.5314 652.037C82.3228 651.673 81.235 651.492 80.2681 651.492C79.0595 651.492 77.8811 651.673 76.7329 652.037C75.5847 652.4 74.4667 652.824 73.3789 653.308L72.835 673.468C74.225 673.468 75.9473 673.347 78.0019 673.104C80.0566 672.862 82.0206 672.348 83.894 671.561C85.8278 670.713 87.4594 669.502 88.7889 667.928C90.1184 666.294 90.7832 664.084 90.7832 661.299ZM77.9113 690.903C76.1588 690.903 74.4667 691.085 72.835 691.448L72.4725 712.153C73.3789 712.334 74.2552 712.516 75.1012 712.698C76.0077 712.819 76.8839 712.879 77.73 712.879C78.999 712.879 80.389 712.758 81.8997 712.516C83.4105 712.213 84.8307 711.668 86.1602 710.881C87.4896 710.034 88.5774 708.914 89.4234 707.521C90.3299 706.129 90.7832 704.283 90.7832 701.982C90.7832 699.682 90.3299 697.805 89.4234 696.352C88.5774 694.899 87.5199 693.779 86.2508 692.992C84.9817 692.144 83.5918 691.599 82.081 691.357C80.5703 691.055 79.1803 690.903 77.9113 690.903Z" fill="#F5A623"/>
<path d="M376.788 713.061C376.788 718.086 375.851 722.414 373.978 726.047C372.165 729.679 369.718 732.767 366.636 735.309C363.554 737.852 359.988 739.941 355.939 741.575C351.951 743.149 347.781 744.39 343.43 745.298C339.079 746.207 334.698 746.812 330.286 747.115C325.935 747.417 321.856 747.569 318.049 747.569C314.302 747.569 310.404 747.417 306.355 747.115C302.367 746.872 298.378 746.418 294.39 745.752C290.401 745.087 286.473 744.209 282.606 743.119C278.738 741.969 275.082 740.546 271.637 738.851L271.456 621.888C274.84 620.495 278.436 619.254 282.243 618.164C286.05 617.014 289.918 616.076 293.846 615.349C297.834 614.562 301.793 613.987 305.721 613.624C309.649 613.2 313.456 612.988 317.142 612.988C321.433 612.988 325.754 613.261 330.105 613.806C334.516 614.35 338.746 615.259 342.795 616.53C346.844 617.801 350.621 619.466 354.126 621.524C357.631 623.522 360.683 626.004 363.282 628.971C365.941 631.937 367.995 635.388 369.446 639.323C370.956 643.258 371.712 647.799 371.712 652.945C371.712 656.335 371.228 659.513 370.261 662.48C369.295 665.446 367.905 668.11 366.092 670.471C364.279 672.832 362.073 674.86 359.474 676.555C356.876 678.19 353.945 679.401 350.682 680.188C354.61 681.217 358.175 682.73 361.378 684.728C364.641 686.726 367.391 689.148 369.627 691.993C371.923 694.838 373.676 698.047 374.884 701.619C376.153 705.191 376.788 709.005 376.788 713.061ZM330.739 661.299C330.739 659.544 330.377 658.06 329.652 656.849C328.926 655.578 328.02 654.549 326.932 653.762C325.905 652.975 324.757 652.4 323.488 652.037C322.279 651.673 321.191 651.492 320.224 651.492C319.016 651.492 317.837 651.673 316.689 652.037C315.541 652.4 314.423 652.824 313.335 653.308L312.791 673.468C314.181 673.468 315.903 673.347 317.958 673.104C320.013 672.862 321.977 672.348 323.85 671.561C325.784 670.713 327.416 669.502 328.745 667.928C330.075 666.294 330.739 664.084 330.739 661.299ZM317.867 690.903C316.115 690.903 314.423 691.085 312.791 691.448L312.429 712.153C313.335 712.334 314.211 712.516 315.057 712.698C315.964 712.819 316.84 712.879 317.686 712.879C318.955 712.879 320.345 712.758 321.856 712.516C323.367 712.213 324.787 711.668 326.116 710.881C327.446 710.034 328.534 708.914 329.38 707.521C330.286 706.129 330.739 704.283 330.739 701.982C330.739 699.682 330.286 697.805 329.38 696.352C328.534 694.899 327.476 693.779 326.207 692.992C324.938 692.144 323.548 691.599 322.037 691.357C320.526 691.055 319.137 690.903 317.867 690.903Z" fill="#F5A623"/>
<path d="M263.556 678.881C263.556 684.845 262.871 690.614 261.499 696.185C260.127 701.691 258.135 706.869 255.523 711.72C252.976 716.57 249.841 721.027 246.118 725.091C242.46 729.089 238.313 732.531 233.676 735.415C229.104 738.299 224.107 740.56 218.686 742.199C213.265 743.772 207.518 744.558 201.444 744.558C195.565 744.558 189.948 743.805 184.593 742.297C179.302 740.789 174.339 738.692 169.701 736.005C165.064 733.252 160.851 729.974 157.063 726.173C153.34 722.305 150.14 718.045 147.462 713.391C144.85 708.672 142.792 703.625 141.29 698.25C139.853 692.875 139.135 687.271 139.135 681.437C139.135 675.735 139.82 670.163 141.192 664.723C142.564 659.217 144.523 654.039 147.07 649.188C149.683 644.338 152.818 639.881 156.475 635.817C160.133 631.753 164.215 628.246 168.722 625.296C173.293 622.347 178.225 620.053 183.515 618.414C188.805 616.775 194.39 615.956 200.268 615.956C209.738 615.956 218.36 617.431 226.132 620.38C233.969 623.33 240.631 627.558 246.118 633.064C251.669 638.504 255.947 645.124 258.952 652.924C262.022 660.659 263.556 669.311 263.556 678.881ZM220.058 681.437C220.058 678.619 219.633 675.898 218.784 673.277C218 670.589 216.825 668.229 215.257 666.197C213.69 664.1 211.73 662.429 209.379 661.183C207.093 659.872 204.448 659.217 201.444 659.217C198.374 659.217 195.631 659.774 193.214 660.888C190.797 662.002 188.707 663.543 186.944 665.509C185.246 667.41 183.94 669.671 183.025 672.293C182.111 674.85 181.654 677.57 181.654 680.454C181.654 683.207 182.045 685.96 182.829 688.713C183.613 691.466 184.789 693.956 186.356 696.185C187.924 698.414 189.85 700.216 192.136 701.593C194.488 702.969 197.198 703.657 200.268 703.657C203.338 703.657 206.081 703.067 208.497 701.888C210.979 700.642 213.069 699.004 214.767 696.972C216.466 694.874 217.772 692.482 218.686 689.794C219.601 687.107 220.058 684.321 220.058 681.437Z" fill="#F5A623"/>
<path d="M504.5 740.52L457.854 746.537L452.211 725.29H430.769L426.066 746.537L378.103 741.836L415.533 616.61L467.822 613.978L504.5 740.52ZM448.825 696.522L445.702 670.509C445.137 665.804 438.308 665.815 437.758 670.522L434.719 696.522H448.825Z" fill="#F5A623"/>
<path d="M154.606 858.48C154.606 863.505 153.67 867.834 151.796 871.466C149.983 875.099 147.536 878.186 144.454 880.729C141.372 883.272 137.806 885.36 133.758 886.995C129.769 888.569 125.599 889.81 121.248 890.718C116.897 891.626 112.516 892.232 108.104 892.534C103.753 892.837 99.6743 892.988 95.8671 892.988C92.1204 892.988 88.2225 892.837 84.1736 892.534C80.1852 892.292 76.1967 891.838 72.2082 891.172C68.2198 890.506 64.2917 889.628 60.4241 888.539C56.5565 887.388 52.9004 885.966 49.4558 884.271L49.2745 767.307C52.6587 765.915 56.2544 764.674 60.0615 763.584C63.8687 762.434 67.7363 761.495 71.6643 760.769C75.6528 759.982 79.6111 759.407 83.5391 759.044C87.4671 758.62 91.2743 758.408 94.9606 758.408C99.2513 758.408 103.572 758.68 107.923 759.225C112.335 759.77 116.565 760.678 120.614 761.949C124.663 763.221 128.44 764.886 131.945 766.944C135.45 768.942 138.501 771.424 141.1 774.39C143.759 777.357 145.814 780.808 147.264 784.743C148.775 788.678 149.53 793.218 149.53 798.364C149.53 801.755 149.047 804.933 148.08 807.899C147.113 810.866 145.723 813.53 143.91 815.891C142.097 818.252 139.891 820.28 137.293 821.975C134.694 823.609 131.763 824.82 128.5 825.607C132.428 826.636 135.994 828.15 139.196 830.148C142.46 832.146 145.209 834.567 147.445 837.413C149.742 840.258 151.494 843.467 152.703 847.038C153.972 850.61 154.606 854.424 154.606 858.48ZM108.558 806.719C108.558 804.963 108.195 803.48 107.47 802.269C106.745 800.998 105.838 799.969 104.751 799.182C103.723 798.395 102.575 797.819 101.306 797.456C100.097 797.093 99.0095 796.911 98.0426 796.911C96.834 796.911 95.6556 797.093 94.5074 797.456C93.3592 797.819 92.2412 798.243 91.1535 798.728L90.6096 818.887C91.9995 818.887 93.7218 818.766 95.7765 818.524C97.8311 818.282 99.7951 817.767 101.669 816.98C103.602 816.133 105.234 814.922 106.563 813.348C107.893 811.713 108.558 809.504 108.558 806.719ZM95.6858 836.323C93.9333 836.323 92.2412 836.504 90.6096 836.868L90.247 857.572C91.1535 857.754 92.0297 857.936 92.8758 858.117C93.7822 858.238 94.6585 858.299 95.5045 858.299C96.7736 858.299 98.1635 858.178 99.6743 857.936C101.185 857.633 102.605 857.088 103.935 856.301C105.264 855.453 106.352 854.334 107.198 852.941C108.104 851.549 108.558 849.702 108.558 847.402C108.558 845.101 108.104 843.224 107.198 841.771C106.352 840.318 105.294 839.199 104.025 838.411C102.756 837.564 101.366 837.019 99.8556 836.777C98.3448 836.474 96.9549 836.323 95.6858 836.323Z" fill="#F5A623"/>
<path d="M372.179 885.94L325.532 891.957L319.889 870.709H298.447L293.745 891.957L245.782 887.256L283.212 762.03L335.501 759.397L372.179 885.94ZM316.504 841.941L313.378 817.192C312.788 812.52 306.014 812.531 305.439 817.205L302.397 841.941H316.504Z" fill="#F5A623"/>
<path d="M245.782 762.365C245.43 767.911 245.107 773.398 244.814 778.825C244.521 784.253 244.14 789.74 243.67 795.286L206.366 797.233L205.486 808.383H231.705L229.769 835.818L203.374 836.703L202.494 849.623H239.799C239.447 856.113 239.066 862.573 238.655 869.004C238.303 875.376 237.981 881.777 237.687 888.208L161.847 889.978L164.662 762.365H245.782Z" fill="#F5A623"/>
<path d="M487.713 805.442C487.713 810.212 487.287 814.553 486.436 818.467C485.645 822.319 484.368 825.866 482.605 829.107C480.841 832.347 478.561 835.344 475.764 838.095C472.966 840.847 469.591 843.477 465.639 845.984L487.348 884.874L446.301 892.946L432.254 853.872L420.943 854.239L419.301 892.395H380.078C380.382 878.454 380.656 864.573 380.899 850.753C381.203 836.934 381.538 823.053 381.903 809.111C382.024 802.079 382.146 795.108 382.267 788.198C382.389 781.288 382.632 774.317 382.997 767.285C387.254 765.695 391.45 764.381 395.585 763.341C399.72 762.302 403.855 761.507 407.99 760.956C412.186 760.345 416.413 759.947 420.669 759.764C424.987 759.519 429.396 759.397 433.896 759.397C440.828 759.397 447.517 760.376 453.963 762.332C460.47 764.228 466.216 767.102 471.203 770.954C476.189 774.807 480.172 779.607 483.152 785.355C486.193 791.103 487.713 797.798 487.713 805.442ZM446.848 808.377C446.848 805.809 446.483 803.455 445.754 801.315C445.085 799.174 444.051 797.34 442.652 795.811C441.315 794.221 439.612 792.998 437.544 792.142C435.538 791.225 433.166 790.766 430.429 790.766C429.213 790.766 428.027 790.858 426.872 791.042C425.717 791.164 424.592 791.378 423.497 791.684L422.038 825.805H424.227C426.842 825.805 429.487 825.468 432.163 824.796C434.899 824.123 437.331 823.083 439.46 821.677C441.649 820.271 443.412 818.467 444.75 816.265C446.149 814.064 446.848 811.435 446.848 808.377Z" fill="#F5A623"/>
</svg>
