<svg width="749" height="363" viewBox="0 0 749 363" fill="none" xmlns="http://www.w3.org/2000/svg">
<path d="M575.64 42.6884L575.671 42.7058C575.69 42.7168 575.71 42.7278 575.73 42.7393C596.43 54.644 594.622 59.4933 610.501 48.5C617.001 44 621.463 35.9824 628.229 35.6416L680.519 33.0098C687.93 32.6367 694.625 37.408 696.69 44.5352L733.368 171.077C734.669 175.564 733.944 180.396 731.383 184.303C728.822 188.21 724.681 190.803 720.048 191.4L695.985 194.504C702.165 199.605 707.134 205.819 710.858 213.003C715.272 221.399 717.214 230.706 717.214 240.454C717.214 246.09 716.716 251.53 715.609 256.693L715.596 256.759C715.587 256.799 715.58 256.84 715.571 256.88C714.48 262.112 712.698 267.102 710.16 271.766C707.596 276.478 704.336 280.726 700.485 284.514C700.259 284.737 700.03 284.958 699.799 285.178L714.819 312.087C717.317 316.561 717.521 321.961 715.367 326.61C713.214 331.26 708.964 334.596 703.937 335.585L662.889 343.657C656.2 344.972 649.548 341.904 646.127 336.266C643.254 340.58 638.346 343.407 632.802 343.407H593.579C589.275 343.407 585.153 341.673 582.143 338.597C581.844 338.292 581.56 337.976 581.289 337.65L541.08 342.837C533.119 343.864 525.63 338.833 523.569 331.075L523.108 329.34L522.868 330.426C521.119 338.329 513.742 343.681 505.686 342.892L457.723 338.191C457.497 338.169 457.273 338.141 457.05 338.109C455.343 338.781 453.495 339.171 451.562 339.216L375.721 340.985C371.353 341.087 367.133 339.398 364.041 336.311C362.993 335.263 362.105 334.086 361.394 332.817C358.805 334.358 356.084 335.698 353.248 336.843C353.209 336.858 353.171 336.874 353.132 336.89C348.269 338.809 343.226 340.306 338.019 341.393C332.959 342.449 327.856 343.153 322.715 343.507C318.046 343.832 313.594 344 309.368 344C305.248 344 301.011 343.834 296.66 343.513C292.122 343.236 287.593 342.72 283.074 341.966C278.515 341.205 274.018 340.2 269.586 338.951C269.546 338.94 269.505 338.928 269.465 338.916L269.364 338.887C264.68 337.494 260.182 335.749 255.893 333.638C250.43 330.95 246.966 325.395 246.957 319.307L246.775 202.344C246.77 198.883 247.88 195.604 249.826 192.922C245.774 191.627 241.866 190.064 238.117 188.219C232.655 185.531 229.192 179.975 229.183 173.888L229.001 56.9238C228.991 50.4298 232.908 44.5735 238.913 42.1025C242.89 40.4662 247.052 39.0342 251.385 37.7939C255.626 36.5214 259.929 35.4791 264.293 34.665C268.721 33.7913 273.141 33.1447 277.55 32.7285C282.007 32.2476 286.389 32 290.688 32C295.648 32 300.624 32.3151 305.61 32.9385C310.937 33.5964 316.119 34.7017 321.134 36.2764C326.287 37.8944 331.18 40.0415 335.773 42.7393C340.664 45.5519 345.012 49.0777 348.74 53.3027L348.788 53.3564C348.794 53.3631 348.793 53.3625 348.799 53.3692C348.805 53.3758 348.818 53.3896 348.824 53.3963L348.841 53.4155L348.855 53.4312L348.862 53.4395C351.497 56.402 353.705 59.6472 355.505 63.1299C356.34 62.1099 357.199 61.1079 358.084 60.125C362.651 55.051 367.781 50.6377 373.46 46.9209L373.504 46.8924L373.548 46.864C379.365 43.1109 385.626 40.2042 392.282 38.1426C399.197 36.0008 406.384 34.9678 413.769 34.9678C424.896 34.9678 435.459 36.7031 445.268 40.4189C454.242 43.7964 462.247 48.6223 469.075 54.9697C469.765 49.2764 473.473 44.3228 478.869 42.1025C482.846 40.4662 487.008 39.0342 491.341 37.7939C495.643 36.5031 500.009 35.447 504.438 34.6279C508.803 33.7728 513.159 33.1388 517.506 32.7285C521.964 32.2476 526.345 32 530.644 32C535.604 32 540.58 32.3151 545.566 32.9385C550.893 33.5964 556.075 34.7017 561.09 36.2764C566.176 37.8735 571.008 39.9879 575.55 42.6367L575.583 42.6561L575.614 42.6738L575.64 42.6884Z" fill="#1A2310"/>
<path fill-rule="evenodd" clip-rule="evenodd" d="M530.644 17C536.233 17 541.823 17.356 547.404 18.0527C553.588 18.8165 559.662 20.1054 565.584 21.9648C571.669 23.8756 577.508 26.4221 583.033 29.6367C583.049 29.6457 583.068 29.6568 583.088 29.668C583.142 29.6988 583.226 29.746 583.326 29.8047C588.896 33.0134 593.023 35.7882 595.878 37.6572C596.671 38.1767 597.306 38.5804 597.809 38.8945C598.743 38.3305 600.078 37.4721 601.963 36.167C604.003 34.7549 604.715 33.605 608.987 29.5859C611.958 26.791 618.249 21.1249 627.476 20.6602L679.765 18.0283C694.123 17.3056 707.095 26.5505 711.098 40.3594L747.775 166.901C750.295 175.594 748.89 184.954 743.928 192.525C739.36 199.495 732.197 204.303 724.084 205.926C724.114 205.984 724.146 206.042 724.176 206.1C729.876 216.976 732.214 228.73 732.214 240.454C732.214 246.931 731.645 253.415 730.293 259.755C730.291 259.767 730.289 259.78 730.286 259.794C730.279 259.832 730.267 259.882 730.255 259.941C728.884 266.514 726.619 272.902 723.336 278.936C721.767 281.818 720.002 284.548 718.068 287.132L727.916 304.775C732.755 313.443 733.151 323.906 728.979 332.915C724.806 341.923 716.572 348.387 706.831 350.303L665.783 358.375C658.745 359.759 651.735 358.639 645.735 355.58C641.796 357.392 637.415 358.407 632.802 358.407H593.579C587.518 358.407 581.644 356.631 576.647 353.373L542.999 357.714C535.868 358.634 528.933 357.043 523.142 353.583C517.818 356.765 511.516 358.372 504.953 357.883L504.223 357.82L458.516 353.341C456.387 353.858 454.176 354.159 451.911 354.212L376.07 355.981C369.753 356.129 363.596 354.342 358.389 350.938C352.784 353.134 347.006 354.84 341.083 356.076C335.354 357.272 329.57 358.071 323.743 358.472C318.783 358.816 313.984 359 309.368 359C304.847 359 300.239 358.817 295.556 358.472C290.557 358.16 285.571 357.59 280.604 356.761C275.509 355.91 270.478 354.786 265.518 353.389C265.428 353.364 265.338 353.338 265.262 353.315C265.249 353.312 265.236 353.308 265.223 353.304L265.122 353.274C265.111 353.271 265.099 353.268 265.088 353.265C259.636 351.643 254.351 349.597 249.27 347.097C238.687 341.889 231.975 331.126 231.957 319.33L231.91 288.934L231.775 202.367C231.775 202.183 231.777 202 231.78 201.816C231.685 201.77 231.589 201.725 231.494 201.678C221.075 196.55 214.412 186.04 214.189 174.463L214.183 173.911L214.001 56.9473C213.982 44.3654 221.57 33.018 233.206 28.2305C237.739 26.3653 242.432 24.7542 247.257 23.373C251.955 21.9703 256.718 20.8188 261.542 19.9189C266.401 18.9653 271.269 18.2548 276.141 17.7949C281.026 17.2745 285.879 17 290.688 17C296.277 17 301.867 17.3559 307.448 18.0527C313.632 18.8164 319.706 20.1054 325.628 21.9648C331.816 23.908 337.755 26.5076 343.369 29.8047C348.398 32.7099 353.01 36.2256 357.129 40.3379C359.33 38.5289 361.614 36.8181 363.982 35.2119L365.28 34.3467L365.324 34.3184C365.337 34.3099 365.351 34.3014 365.364 34.293L365.408 34.2646C372.393 29.7582 379.908 26.2726 387.844 23.8145C396.281 21.201 404.971 19.9678 413.769 19.9678L414.958 19.9736C427.237 20.0941 439.224 22.0888 450.582 26.3916C455.581 28.2749 460.371 30.5561 464.913 33.25C467.342 31.1909 470.112 29.4853 473.162 28.2305C477.695 26.3653 482.388 24.7542 487.213 23.373C491.925 21.9661 496.707 20.8104 501.554 19.9082C506.394 18.96 511.244 18.253 516.097 17.7949C520.982 17.2745 525.835 17 530.644 17ZM530.644 32C526.345 32 521.963 32.2476 517.506 32.7285C513.159 33.1388 508.803 33.7728 504.438 34.6279C500.009 35.447 495.643 36.5031 491.341 37.7939C487.008 39.0342 482.846 40.4662 478.869 42.1025C473.473 44.3228 469.765 49.2765 469.075 54.9697C462.247 48.6223 454.242 43.7964 445.268 40.4189C435.459 36.7032 424.896 34.9678 413.769 34.9678C406.384 34.9678 399.197 36.0008 392.282 38.1426C385.626 40.2042 379.365 43.1112 373.548 46.8643L373.46 46.9209C367.781 50.6377 362.651 55.051 358.084 60.125C357.199 61.1079 356.34 62.1099 355.505 63.1299C353.705 59.6472 351.497 56.402 348.862 53.4395L348.855 53.4316L348.841 53.415L348.824 53.3965C348.818 53.3899 348.806 53.3759 348.8 53.3691C348.794 53.3626 348.794 53.3631 348.788 53.3564L348.74 53.3027C345.013 49.0777 340.664 45.5519 335.773 42.7393C331.18 40.0415 326.287 37.8944 321.134 36.2764C316.119 34.7017 310.937 33.5964 305.61 32.9385C300.624 32.3151 295.648 32 290.688 32C286.389 32 282.007 32.2476 277.55 32.7285C273.141 33.1447 268.721 33.7913 264.293 34.665C259.929 35.4791 255.626 36.5214 251.385 37.7939C247.052 39.0342 242.89 40.4662 238.913 42.1025C232.908 44.5736 228.991 50.4298 229.001 56.9238L229.183 173.888C229.192 179.975 232.655 185.531 238.117 188.219C241.866 190.064 245.774 191.627 249.826 192.922C247.88 195.604 246.77 198.883 246.775 202.344L246.957 319.307C246.967 325.395 250.43 330.95 255.893 333.638C260.182 335.749 264.68 337.494 269.364 338.887L269.465 338.916C269.505 338.928 269.546 338.94 269.586 338.951C274.018 340.2 278.515 341.205 283.074 341.966C287.593 342.72 292.122 343.236 296.66 343.513C301.011 343.834 305.248 344 309.368 344C313.594 344 318.046 343.832 322.715 343.507C327.856 343.153 332.959 342.449 338.019 341.393C343.226 340.306 348.269 338.809 353.132 336.89C353.171 336.874 353.209 336.858 353.248 336.843C356.084 335.698 358.805 334.358 361.394 332.817C362.105 334.086 362.993 335.263 364.041 336.311C367.133 339.398 371.353 341.087 375.721 340.985L451.562 339.216C453.495 339.171 455.344 338.781 457.05 338.109C457.273 338.141 457.497 338.169 457.723 338.191L505.686 342.892C513.742 343.681 521.119 338.329 522.868 330.426L523.108 329.34L523.569 331.075C525.63 338.833 533.119 343.864 541.08 342.837L581.289 337.65C581.56 337.976 581.844 338.292 582.143 338.597C585.153 341.673 589.275 343.407 593.579 343.407H632.802C638.346 343.407 643.254 340.58 646.127 336.266C649.548 341.904 656.2 344.972 662.889 343.657L703.937 335.585C708.964 334.596 713.214 331.26 715.367 326.61C717.521 321.961 717.317 316.561 714.819 312.087L699.799 285.178C700.03 284.958 700.259 284.737 700.485 284.514C704.336 280.726 707.596 276.478 710.16 271.766C712.698 267.102 714.48 262.112 715.571 256.88C715.58 256.84 715.587 256.799 715.596 256.759L715.609 256.693C716.717 251.53 717.214 246.09 717.214 240.454C717.214 230.706 715.272 221.399 710.858 213.003C707.134 205.819 702.165 199.605 695.985 194.504L720.048 191.4C724.681 190.803 728.822 188.21 731.383 184.303C733.944 180.396 734.669 175.564 733.368 171.077L696.69 44.5352C694.625 37.408 687.93 32.6367 680.519 33.0098L628.23 35.6416C621.463 35.9825 617.001 44 610.501 48.5C594.622 59.4932 596.43 54.644 575.73 42.7393C575.71 42.7279 575.691 42.717 575.671 42.7061L575.64 42.6885L575.614 42.6738L575.584 42.6562L575.55 42.6367C571.008 39.988 566.176 37.8734 561.09 36.2764C556.075 34.7017 550.893 33.5964 545.566 32.9385C540.58 32.3151 535.604 32 530.644 32ZM577.647 39.1992L579.402 36.2012C579.394 36.1961 579.386 36.1912 579.38 36.1875L577.647 39.1992Z" fill="#40FF00"/>
<path d="M350.333 148.073C350.333 153.097 349.396 157.426 347.523 161.058C345.71 164.691 343.262 167.778 340.18 170.321C337.098 172.864 333.533 174.952 329.484 176.587C325.496 178.161 321.326 179.402 316.975 180.31C312.624 181.218 308.242 181.824 303.831 182.126C299.48 182.429 295.401 182.58 291.594 182.58C287.847 182.58 283.949 182.429 279.9 182.126C275.912 181.884 271.923 181.43 267.935 180.764C263.946 180.098 260.018 179.22 256.151 178.131C252.283 176.98 248.627 175.558 245.182 173.863L245.001 56.8994C248.385 55.507 251.981 54.2659 255.788 53.1762C259.595 52.0259 263.463 51.0875 267.391 50.3611C271.379 49.574 275.338 48.9989 279.266 48.6357C283.194 48.2119 287.001 48 290.687 48C294.978 48 299.299 48.2724 303.65 48.8173C308.061 49.3621 312.291 50.2702 316.34 51.5416C320.389 52.8129 324.166 54.4778 327.671 56.5361C331.176 58.534 334.228 61.0161 336.826 63.9826C339.485 66.949 341.54 70.3998 342.99 74.3349C344.501 78.27 345.257 82.8105 345.257 87.9564C345.257 91.3466 344.773 94.525 343.806 97.4914C342.839 100.458 341.449 103.122 339.636 105.483C337.824 107.844 335.618 109.872 333.019 111.567C330.421 113.202 327.49 114.412 324.226 115.199C328.155 116.229 331.72 117.742 334.923 119.74C338.186 121.738 340.936 124.159 343.172 127.005C345.468 129.85 347.221 133.059 348.429 136.631C349.698 140.202 350.333 144.016 350.333 148.073ZM304.284 96.3109C304.284 94.5552 303.922 93.072 303.196 91.8612C302.471 90.5899 301.565 89.5607 300.477 88.7737C299.45 87.9867 298.301 87.4115 297.032 87.0483C295.824 86.6851 294.736 86.5034 293.769 86.5034C292.56 86.5034 291.382 86.6851 290.234 87.0483C289.086 87.4115 287.968 87.8353 286.88 88.3196L286.336 108.479C287.726 108.479 289.448 108.358 291.503 108.116C293.558 107.874 295.522 107.359 297.395 106.572C299.329 105.725 300.96 104.514 302.29 102.94C303.619 101.305 304.284 99.0957 304.284 96.3109ZM291.412 125.915C289.66 125.915 287.968 126.097 286.336 126.46L285.973 147.164C286.88 147.346 287.756 147.528 288.602 147.709C289.509 147.83 290.385 147.891 291.231 147.891C292.5 147.891 293.89 147.77 295.401 147.528C296.912 147.225 298.332 146.68 299.661 145.893C300.991 145.046 302.078 143.926 302.924 142.533C303.831 141.141 304.284 139.294 304.284 136.994C304.284 134.693 303.831 132.817 302.924 131.364C302.078 129.911 301.021 128.791 299.752 128.004C298.483 127.156 297.093 126.611 295.582 126.369C294.071 126.066 292.681 125.915 291.412 125.915Z" fill="#F5A623"/>
<path d="M590.289 148.073C590.289 153.097 589.352 157.426 587.479 161.058C585.666 164.691 583.219 167.778 580.137 170.321C577.055 172.864 573.489 174.952 569.44 176.587C565.452 178.161 561.282 179.402 556.931 180.31C552.58 181.218 548.199 181.824 543.787 182.126C539.436 182.429 535.357 182.58 531.55 182.58C527.803 182.58 523.905 182.429 519.856 182.126C515.868 181.884 511.879 181.43 507.891 180.764C503.902 180.098 499.974 179.22 496.107 178.131C492.239 176.98 488.583 175.558 485.138 173.863L484.957 56.8994C488.341 55.507 491.937 54.2659 495.744 53.1762C499.551 52.0259 503.419 51.0875 507.347 50.3611C511.335 49.574 515.294 48.9989 519.222 48.6357C523.15 48.2119 526.957 48 530.643 48C534.934 48 539.255 48.2724 543.606 48.8173C548.017 49.3621 552.247 50.2702 556.296 51.5416C560.345 52.8129 564.122 54.4778 567.627 56.5361C571.132 58.534 574.184 61.0161 576.783 63.9826C579.442 66.949 581.496 70.3998 582.947 74.3349C584.457 78.27 585.213 82.8105 585.213 87.9564C585.213 91.3466 584.729 94.525 583.762 97.4914C582.795 100.458 581.406 103.122 579.593 105.483C577.78 107.844 575.574 109.872 572.975 111.567C570.377 113.202 567.446 114.412 564.183 115.199C568.111 116.229 571.676 117.742 574.879 119.74C578.142 121.738 580.892 124.159 583.128 127.005C585.424 129.85 587.177 133.059 588.385 136.631C589.654 140.202 590.289 144.016 590.289 148.073ZM544.24 96.3109C544.24 94.5552 543.878 93.072 543.152 91.8612C542.427 90.5899 541.521 89.5607 540.433 88.7737C539.406 87.9867 538.258 87.4115 536.989 87.0483C535.78 86.6851 534.692 86.5034 533.725 86.5034C532.517 86.5034 531.338 86.6851 530.19 87.0483C529.042 87.4115 527.924 87.8353 526.836 88.3196L526.292 108.479C527.682 108.479 529.404 108.358 531.459 108.116C533.514 107.874 535.478 107.359 537.351 106.572C539.285 105.725 540.917 104.514 542.246 102.94C543.576 101.305 544.24 99.0957 544.24 96.3109ZM531.368 125.915C529.616 125.915 527.924 126.097 526.292 126.46L525.93 147.164C526.836 147.346 527.712 147.528 528.558 147.709C529.465 147.83 530.341 147.891 531.187 147.891C532.456 147.891 533.846 147.77 535.357 147.528C536.868 147.225 538.288 146.68 539.617 145.893C540.947 145.046 542.035 143.926 542.881 142.533C543.787 141.141 544.24 139.294 544.24 136.994C544.24 134.693 543.787 132.817 542.881 131.364C542.035 129.911 540.977 128.791 539.708 128.004C538.439 127.156 537.049 126.611 535.538 126.369C534.027 126.066 532.637 125.915 531.368 125.915Z" fill="#F5A623"/>
<path d="M477.057 113.892C477.057 119.857 476.372 125.625 475 131.197C473.628 136.703 471.636 141.881 469.024 146.731C466.477 151.582 463.342 156.039 459.619 160.103C455.961 164.101 451.814 167.542 447.177 170.426C442.605 173.31 437.608 175.572 432.187 177.21C426.766 178.784 421.019 179.57 414.944 179.57C409.066 179.57 403.449 178.816 398.094 177.309C392.803 175.801 387.839 173.704 383.202 171.016C378.565 168.263 374.352 164.986 370.564 161.184C366.841 157.317 363.641 153.057 360.963 148.403C358.351 143.683 356.293 138.636 354.791 133.261C353.354 127.887 352.636 122.282 352.636 116.449C352.636 110.746 353.321 105.175 354.693 99.7344C356.065 94.2285 358.024 89.0503 360.571 84.1999C363.184 79.3494 366.319 74.8922 369.976 70.8284C373.634 66.7645 377.716 63.2577 382.223 60.3081C386.794 57.3585 391.726 55.0644 397.016 53.4257C402.306 51.7871 407.891 50.9677 413.769 50.9677C423.239 50.9677 431.861 52.4425 439.633 55.3921C447.47 58.3417 454.132 62.5695 459.619 68.0754C465.17 73.5158 469.448 80.136 472.453 87.936C475.522 95.6705 477.057 104.323 477.057 113.892ZM433.559 116.449C433.559 113.63 433.134 110.91 432.285 108.288C431.501 105.601 430.326 103.241 428.758 101.209C427.191 99.1117 425.231 97.4403 422.88 96.1949C420.594 94.884 417.949 94.2285 414.944 94.2285C411.875 94.2285 409.132 94.7856 406.715 95.8999C404.298 97.0142 402.208 98.5546 400.445 100.521C398.747 102.422 397.44 104.683 396.526 107.305C395.612 109.861 395.155 112.582 395.155 115.466C395.155 118.219 395.546 120.971 396.33 123.724C397.114 126.477 398.29 128.968 399.857 131.197C401.425 133.425 403.351 135.228 405.637 136.604C407.989 137.981 410.699 138.669 413.769 138.669C416.839 138.669 419.582 138.079 421.998 136.899C424.48 135.654 426.57 134.015 428.268 131.983C429.966 129.886 431.273 127.493 432.187 124.806C433.102 122.119 433.559 119.333 433.559 116.449Z" fill="#F5A623"/>
<path d="M718.001 175.532L671.355 181.549L665.712 160.302H644.27L639.567 181.549L591.604 176.848L629.034 51.6216L681.323 48.9892L718.001 175.532ZM662.326 131.533L659.203 105.521C658.638 100.816 651.809 100.827 651.259 105.533L648.22 131.533H662.326Z" fill="#F5A623"/>
<path d="M368.107 293.492C368.107 298.517 367.171 302.846 365.297 306.478C363.484 310.11 361.037 313.198 357.955 315.741C354.873 318.283 351.307 320.372 347.259 322.007C343.27 323.581 339.1 324.822 334.749 325.73C330.398 326.638 326.017 327.243 321.605 327.546C317.254 327.849 313.175 328 309.368 328C305.621 328 301.724 327.849 297.675 327.546C293.686 327.304 289.698 326.85 285.709 326.184C281.721 325.518 277.793 324.64 273.925 323.55C270.057 322.4 266.401 320.977 262.957 319.282L262.776 202.319C266.16 200.927 269.755 199.686 273.563 198.596C277.37 197.446 281.237 196.507 285.165 195.781C289.154 194.994 293.112 194.419 297.04 194.055C300.968 193.632 304.775 193.42 308.462 193.42C312.752 193.42 317.073 193.692 321.424 194.237C325.836 194.782 330.066 195.69 334.115 196.961C338.164 198.233 341.941 199.897 345.446 201.956C348.951 203.954 352.002 206.436 354.601 209.402C357.26 212.369 359.315 215.819 360.765 219.755C362.276 223.69 363.031 228.23 363.031 233.376C363.031 236.766 362.548 239.945 361.581 242.911C360.614 245.878 359.224 248.541 357.411 250.902C355.598 253.263 353.392 255.291 350.794 256.987C348.195 258.621 345.264 259.832 342.001 260.619C345.929 261.648 349.494 263.162 352.697 265.16C355.961 267.157 358.71 269.579 360.946 272.424C363.243 275.27 364.995 278.478 366.204 282.05C367.473 285.622 368.107 289.436 368.107 293.492ZM322.059 241.731C322.059 239.975 321.696 238.492 320.971 237.281C320.246 236.009 319.339 234.98 318.251 234.193C317.224 233.406 316.076 232.831 314.807 232.468C313.598 232.105 312.511 231.923 311.544 231.923C310.335 231.923 309.157 232.105 308.008 232.468C306.86 232.831 305.742 233.255 304.654 233.739L304.111 253.899C305.5 253.899 307.223 253.778 309.277 253.536C311.332 253.294 313.296 252.779 315.169 251.992C317.103 251.144 318.735 249.934 320.064 248.36C321.394 246.725 322.059 244.515 322.059 241.731ZM309.187 271.335C307.434 271.335 305.742 271.516 304.111 271.879L303.748 292.584C304.654 292.766 305.531 292.947 306.377 293.129C307.283 293.25 308.159 293.311 309.005 293.311C310.275 293.311 311.664 293.19 313.175 292.947C314.686 292.645 316.106 292.1 317.436 291.313C318.765 290.465 319.853 289.345 320.699 287.953C321.605 286.56 322.059 284.714 322.059 282.413C322.059 280.113 321.605 278.236 320.699 276.783C319.853 275.33 318.795 274.21 317.526 273.423C316.257 272.576 314.867 272.031 313.357 271.789C311.846 271.486 310.456 271.335 309.187 271.335Z" fill="#F5A623"/>
<path d="M585.679 320.951L539.033 326.968L533.39 305.721H511.948L507.246 326.968L459.283 322.268L496.713 197.041L549.002 194.409L585.679 320.951ZM530.005 276.953L526.879 252.204C526.288 247.531 519.515 247.542 518.94 252.217L515.898 276.953H530.005Z" fill="#F5A623"/>
<path d="M459.283 197.377C458.931 202.922 458.608 208.409 458.315 213.837C458.022 219.265 457.64 224.752 457.171 230.298L419.867 232.245L418.987 243.395H445.206L443.27 270.829L416.875 271.714L415.995 284.635H453.3C452.948 291.125 452.567 297.585 452.156 304.016C451.804 310.388 451.482 316.789 451.188 323.22L375.348 324.99L378.163 197.377H459.283Z" fill="#F5A623"/>
<path d="M701.214 240.454C701.214 245.223 700.788 249.565 699.937 253.478C699.146 257.331 697.869 260.877 696.106 264.118C694.342 267.359 692.062 270.355 689.265 273.107C686.467 275.859 683.092 278.488 679.14 280.995L700.849 319.886L659.802 327.957L645.755 288.884L634.444 289.25L632.802 327.407H593.579C593.883 313.465 594.157 299.585 594.4 285.765C594.704 271.945 595.039 258.065 595.404 244.123C595.525 237.091 595.647 230.12 595.768 223.21C595.89 216.3 596.133 209.329 596.498 202.297C600.755 200.707 604.951 199.392 609.086 198.353C613.221 197.313 617.356 196.518 621.491 195.968C625.687 195.357 629.914 194.959 634.17 194.776C638.488 194.531 642.897 194.409 647.397 194.409C654.329 194.409 661.018 195.387 667.464 197.344C673.971 199.24 679.717 202.114 684.704 205.966C689.69 209.818 693.673 214.618 696.653 220.366C699.694 226.114 701.214 232.81 701.214 240.454ZM660.349 243.389C660.349 240.821 659.984 238.466 659.255 236.326C658.586 234.186 657.552 232.352 656.153 230.823C654.815 229.233 653.113 228.01 651.045 227.154C649.038 226.237 646.667 225.778 643.93 225.778C642.714 225.778 641.528 225.87 640.373 226.053C639.218 226.176 638.093 226.39 636.998 226.695L635.539 260.816H637.728C640.343 260.816 642.988 260.48 645.663 259.807C648.4 259.135 650.832 258.095 652.961 256.689C655.15 255.282 656.913 253.478 658.251 251.277C659.65 249.076 660.349 246.446 660.349 243.389Z" fill="#F5A623"/>
<path fill-rule="evenodd" clip-rule="evenodd" d="M231.957 319.33C231.975 331.125 238.687 341.889 249.27 347.098C228.469 351.098 213.513 347.334 208.77 345C209.247 343.285 209.503 341.391 209.503 339.301C209.503 325.52 203.342 318.922 194.081 312.906L198.404 298.775C209.278 300.688 222.311 297.115 231.91 288.934L231.957 319.33Z" fill="#40FF00"/>
<path d="M36.9399 5.7615C56.1864 -5.20659 78.1826 0.157769 93.3706 16.156C93.3706 16.156 112.069 12.1798 124.214 12.1853C136.268 12.1911 154.802 16.1264 154.942 16.156C154.942 16.156 170.373 2.03495 182.749 0.389424C203.636 -2.38665 223.787 11.4499 229.248 31.5711C233.946 48.8851 227.474 66.8042 215 78.949V88.6814C217.077 98.7772 220.263 108.575 222.004 118.927C224.365 132.961 221.639 144.765 214.999 156.16L215 174.754C220.45 181.759 225.572 189.079 230 196.763C231.773 199.839 233.435 202.975 234.961 206.17C237.829 212.172 240.222 218.392 241.983 224.85C246.578 241.703 249.688 262.977 240.347 278.923C238.512 282.055 236.263 284.853 233.718 287.297C233.131 287.861 232.527 288.407 231.91 288.934C222.311 297.116 209.278 300.688 198.404 298.775L194.081 312.907C203.342 318.923 209.503 325.52 209.503 339.301C209.503 341.391 209.247 343.285 208.77 345C207.945 347.964 206.461 350.396 204.5 352.394C195.251 361.821 175.402 361.608 164.207 362.204C150.217 362.948 135 357.727 122.415 357.758C107.83 357.794 90.824 362.463 75.5825 362.5C58.4235 362.541 35.9632 358.893 37.4077 336.731C38.125 325.731 42.3877 318.026 51.6616 311.972L48.7407 297.724C48.6184 297.742 37.4019 299.357 30.5141 297.724C12.1239 293.365 2.16526 279.001 0.254363 261.171C-1.49768 244.821 6.01301 215.796 16.2612 197.173C23.578 183.876 39.2735 165.896 39.394 165.758C39.3589 165.717 32.3852 157.687 29.4633 151.627C20.5182 133.073 23.5047 115.656 30.6313 93.8172C30.9818 87.6281 31.9771 85.0754 33.0844 80.8543C33.0298 80.8026 28.5147 76.5273 25.3745 72.5623C18.9961 64.5084 15.973 53.9795 16.0268 43.8338C16.1091 28.3758 23.2345 13.5725 36.9399 5.7615Z" fill="#40FF00"/>
<path fill-rule="evenodd" clip-rule="evenodd" d="M123.994 23.0906C109.261 23.0906 86.9441 30.2042 86.9441 30.2042C82.498 15.6796 58.9865 5.14349 41.891 15.6796C31.8611 21.861 26.4771 33.3751 27.3678 45.0234C28.3343 57.6636 34.481 66.068 46.9303 74.0707C44.704 79.3325 44.1359 85.1461 43.7165 89.438C43.5215 91.4322 43.3588 93.098 43.0766 94.2261C37.0983 111.636 31.4534 132.407 41.891 149.061C51.1261 163.796 69.8622 175.848 86.6477 180.554C104.422 185.539 125.936 186.995 145.928 183.725C161.341 178.108 170.168 165.955 169.047 148.468C168.663 142.47 167.531 139.05 164.898 133.648C162.189 128.089 158.294 122.889 153.634 118.827C152.02 117.42 150.663 116.578 149.226 115.685C148.208 115.052 147.149 114.394 145.928 113.492C142.539 110.988 140.373 109.145 137.702 106.872C136.775 106.083 135.786 105.242 134.665 104.304C120.141 92.1513 110.36 80.2952 110.36 59.5481C110.36 44.2525 118.935 32.9319 130.812 23.4981C128.44 23.241 126.137 23.0906 123.994 23.0906Z" fill="#40FF00"/>
<path d="M130.812 23.4992C128.44 23.2421 126.137 23.0916 123.994 23.0916C109.261 23.0916 86.944 30.2052 86.944 30.2052C82.498 15.6806 58.9865 5.14452 41.891 15.6806C31.8611 21.8621 26.4771 33.3762 27.3678 45.0244C28.3343 57.6646 34.481 66.069 46.9303 74.0718C44.704 79.3335 44.1359 85.1471 43.7165 89.439C43.5215 91.4332 43.3588 93.099 43.0766 94.2271C37.0983 111.637 31.4534 132.408 41.891 149.062C51.1261 163.797 69.8622 175.849 86.6476 180.555C104.422 185.54 125.936 186.996 145.928 183.726M130.812 23.4992C144.747 25.0102 161.045 30.2052 161.045 30.2052C161.045 30.2052 168.214 18.5753 175.568 14.7923C185.656 9.6035 194.861 9.00153 204.616 14.7923C220.127 24.001 222.877 44.5293 214.693 59.5491C210.737 66.8085 199.577 74.3693 199.577 74.3693C201.948 79.1106 203.134 90.6703 203.134 94.2271C210.862 112.168 216.141 130.73 205.505 149.062C199.685 159.092 186.125 168.986 175.865 174.256C166.855 178.883 156.608 181.979 145.928 183.726M130.812 23.4992C118.935 32.9329 110.36 44.2536 110.36 59.5491C110.36 80.2962 120.141 92.1523 134.665 104.305C135.786 105.243 136.775 106.084 137.702 106.873C140.373 109.146 142.539 110.989 145.928 113.493C147.149 114.396 148.208 115.054 149.226 115.686C150.663 116.579 152.02 117.421 153.634 118.829C158.294 122.89 162.189 128.091 164.898 133.649C167.531 139.051 168.663 142.471 169.047 148.469C170.168 165.956 161.341 178.109 145.928 183.726" stroke="#1A2310" stroke-width="4"/>
<path fill-rule="evenodd" clip-rule="evenodd" d="M161.045 30.2052C161.045 30.2052 144.747 25.0102 130.812 23.4992C118.935 32.9329 110.36 44.2536 110.36 59.5491C110.36 80.2962 120.141 92.1523 134.665 104.305C135.787 105.243 136.775 106.084 137.702 106.873C140.374 109.146 142.539 110.989 145.928 113.493C147.149 114.396 148.208 115.054 149.227 115.686C150.664 116.579 152.02 117.421 153.635 118.829C158.294 122.89 162.189 128.09 164.898 133.649C167.531 139.051 168.663 142.471 169.048 148.469C170.169 165.956 161.341 178.109 145.928 183.726C156.608 181.979 166.855 178.883 175.865 174.256C186.126 168.986 199.685 159.092 205.505 149.062C216.142 130.73 210.862 112.168 203.134 94.2271C203.134 90.6703 201.948 79.1106 199.577 74.3693C199.577 74.3693 210.738 66.8085 214.693 59.5491C222.877 44.5293 220.128 24.001 204.616 14.7923C194.861 9.00153 185.656 9.6035 175.568 14.7923C168.214 18.5753 161.045 30.2052 161.045 30.2052Z" fill="#A5593F"/>
<path d="M130.812 23.4992C128.44 23.2421 126.137 23.0916 123.994 23.0916C109.261 23.0916 86.944 30.2052 86.944 30.2052C82.498 15.6806 58.9865 5.14452 41.891 15.6806C31.8611 21.8621 26.4771 33.3762 27.3678 45.0244C28.3343 57.6646 34.481 66.069 46.9303 74.0718C43.6694 81.7782 43.9658 90.6703 43.0766 94.2271C37.0983 111.637 31.4534 132.408 41.891 149.062C51.1261 163.797 69.8622 175.849 86.6476 180.555C104.422 185.54 125.936 186.996 145.928 183.726M130.812 23.4992C144.747 25.0102 161.045 30.2052 161.045 30.2052C161.045 30.2052 168.214 18.5753 175.568 14.7923C185.656 9.6035 194.861 9.00153 204.616 14.7923C220.127 24.001 222.877 44.5293 214.693 59.5491C210.737 66.8085 199.577 74.3693 199.577 74.3693C201.948 79.1106 203.134 90.6703 203.134 94.2271C210.862 112.168 216.141 130.73 205.505 149.062C199.685 159.092 186.125 168.986 175.865 174.256C166.855 178.883 156.608 181.979 145.928 183.726" stroke="#1A2310" stroke-width="8"/>
<path d="M130.812 23.4992C128.44 23.2421 126.137 23.0916 123.994 23.0916C109.261 23.0916 86.944 30.2052 86.944 30.2052C82.498 15.6806 58.9865 5.14452 41.891 15.6806C31.8611 21.8621 26.4771 33.3762 27.3678 45.0244C28.3343 57.6646 34.481 66.069 46.9303 74.0718C43.6694 81.7782 43.9658 90.6703 43.0766 94.2271C37.0983 111.637 31.4534 132.408 41.891 149.062C51.1261 163.797 69.8622 175.849 86.6476 180.555C104.422 185.54 125.936 186.996 145.928 183.726M130.812 23.4992C144.747 25.0102 161.045 30.2052 161.045 30.2052C161.045 30.2052 168.214 18.5753 175.568 14.7923C185.656 9.6035 194.861 9.00153 204.616 14.7923C220.127 24.001 222.877 44.5293 214.693 59.5491C210.737 66.8085 199.577 74.3693 199.577 74.3693C201.948 79.1106 203.134 90.6703 203.134 94.2271C210.862 112.168 216.141 130.73 205.505 149.062C199.685 159.092 186.125 168.986 175.865 174.256C166.855 178.883 156.608 181.979 145.928 183.726M130.812 23.4992C118.935 32.9329 110.36 44.2536 110.36 59.5491C110.36 80.2962 120.141 92.1523 134.665 104.305C135.786 105.243 136.775 106.084 137.702 106.873C140.373 109.146 142.539 110.989 145.928 113.493C147.149 114.396 148.208 115.054 149.226 115.686C150.663 116.579 152.02 117.421 153.634 118.829C158.294 122.89 162.189 128.091 164.898 133.649C167.531 139.051 168.663 142.471 169.047 148.469C170.168 165.956 161.341 178.109 145.928 183.726" stroke="#1A2310" stroke-width="4"/>
<path fill-rule="evenodd" clip-rule="evenodd" d="M115.992 299.038H130.219C130.219 299.038 99.6895 299.038 100.875 267.62C101.624 247.761 123.994 241.536 123.994 241.536C123.994 241.536 146.521 235.015 146.521 215.156C146.521 190.993 128.347 186.326 119.908 185.462C117.357 185.2 115.695 185.286 115.695 185.286C111.062 185.015 106.443 184.49 101.764 183.738C91.1579 182.033 81.7679 179.784 72.1242 174.846C65.1776 171.289 56.7116 165.064 56.7116 165.064C39.6756 181.67 25.5481 200.184 17.883 222.863C11.9544 240.404 5.21617 272.63 25.4857 283.329C36.4899 289.137 48.3942 287.474 57.3044 278.883C57.3044 278.883 59.4363 289.73 60.8609 296.667C62.7651 305.941 65.8998 320.379 65.8998 320.379C65.8998 320.379 55.69 323.245 52.2653 328.382C45.7445 338.163 50.1905 348.292 57.3044 350.612C71.7501 355.324 108.581 354.641 115.992 341.127C117.529 338.324 116.93 324.292 116.421 312.378C116.198 307.147 115.992 302.324 115.992 299.038Z" fill="#40FF00"/>
<path d="M190.685 278.883C199.822 287.314 209.478 289.521 220.326 283.329C240.539 271.791 235.561 240.961 229.514 222.863C222.181 200.918 206.043 181.905 190.389 165.361C181.313 171.93 171.276 177.315 160.452 180.477C151.159 183.193 140.763 184.564 131.108 185.22C127.328 185.476 123.607 185.552 119.908 185.462M190.685 278.883C190.286 273.211 189.663 264.359 189.663 264.359M190.685 278.883C189.146 285.847 188.237 289.741 186.535 296.667C184.251 305.965 180.311 320.379 180.311 320.379M119.908 185.462C128.347 186.326 146.521 190.993 146.521 215.156C146.521 235.015 123.994 241.536 123.994 241.536C123.994 241.536 101.624 247.761 100.875 267.62C99.6895 299.038 130.219 299.038 130.219 299.038M119.908 185.462C117.357 185.2 115.695 185.286 115.695 185.286M119.908 185.462C118.502 185.427 117.098 185.369 115.695 185.286M189.663 264.359C197.496 245.448 193.732 222.944 185.942 203.893M189.663 264.359C187.337 269.974 183.99 275.272 179.422 280.069M180.311 320.379C180.311 320.379 175.865 320.209 171.715 320.379C164.025 320.695 156.302 324.529 156.302 324.529M180.311 320.379C180.311 320.379 187.176 323.021 190.685 326.011C198.688 332.828 200.486 342.251 191.871 348.292C184.757 353.28 169.61 353.416 161.045 352.687C151.584 351.882 136.147 348.537 131.108 341.127C129.033 331.643 130.219 311.356 130.219 299.038M57.3044 278.883L56.3704 264.359M57.3044 278.883C57.3044 278.883 59.4363 289.73 60.8609 296.667C62.7651 305.941 65.8998 320.379 65.8998 320.379M57.3044 278.883C48.3942 287.474 36.4899 289.137 25.4857 283.329C5.21617 272.63 11.9544 240.404 17.883 222.863C25.5481 200.184 39.6756 181.67 56.7116 165.064C56.7116 165.064 65.1776 171.289 72.1242 174.846C81.7679 179.784 91.1579 182.033 101.764 183.738C106.443 184.49 111.062 185.015 115.695 185.286M56.3704 264.359C48.4993 245.975 54.145 222.791 61.1573 203.893M56.3704 264.359C58.8586 270.171 62.6975 275.503 68.271 280.069M65.8998 320.379C65.8998 320.379 55.69 323.245 52.2653 328.382C45.7445 338.163 50.1905 348.292 57.3044 350.612C71.7501 355.324 108.581 354.641 115.992 341.127C117.529 338.324 116.93 324.292 116.421 312.378C116.198 307.147 115.992 302.324 115.992 299.038M65.8998 320.379C65.8998 320.379 71.152 320.081 74.4954 320.379C80.8153 320.944 90.2047 324.529 90.2047 324.529M130.219 299.038H115.992M130.219 299.038C130.219 299.038 138.508 298.248 143.557 296.667C147.27 295.505 152.745 292.814 152.745 292.814M115.992 299.038C115.992 299.038 107 298.745 101.764 296.667C98.8276 295.502 94.6507 292.814 94.6507 292.814" stroke="#1A2310" stroke-width="4"/>
<path fill-rule="evenodd" clip-rule="evenodd" d="M220.326 283.329C240.539 271.792 235.561 240.961 229.514 222.863C222.18 200.918 206.043 181.905 190.389 165.361C181.313 171.93 171.276 177.315 160.452 180.478C151.158 183.193 140.763 184.565 131.108 185.22C127.328 185.477 123.607 185.553 119.908 185.462C117.357 185.201 115.695 185.287 115.695 185.287C117.098 185.369 118.501 185.427 119.908 185.462C128.347 186.326 146.521 190.994 146.521 215.157C146.521 235.016 123.994 241.537 123.994 241.537C123.994 241.537 101.624 247.761 100.875 267.62C99.6894 299.039 130.219 299.039 130.219 299.039C130.219 302.136 130.144 305.738 130.065 309.544C129.829 320.876 129.555 334.028 131.108 341.128C136.147 348.538 151.584 351.883 161.045 352.688C169.61 353.417 184.757 353.28 191.87 348.293C200.486 342.251 198.688 332.829 190.685 326.011C187.176 323.022 180.311 320.38 180.311 320.38C180.311 320.38 184.25 305.965 186.535 296.668C188.237 289.742 189.146 285.847 190.685 278.883C199.822 287.314 209.478 289.521 220.326 283.329Z" fill="#A5593F"/>
<path d="M190.685 278.883C199.822 287.314 209.478 289.521 220.326 283.329C240.539 271.791 235.561 240.961 229.514 222.863C222.181 200.918 206.043 181.905 190.389 165.361C181.313 171.93 171.276 177.315 160.452 180.477C151.159 183.193 140.763 184.564 131.108 185.22C127.328 185.476 123.607 185.552 119.908 185.462M190.685 278.883C190.286 273.211 189.663 264.359 189.663 264.359M190.685 278.883C189.146 285.847 188.237 289.741 186.535 296.667C184.251 305.965 180.311 320.379 180.311 320.379M119.908 185.462C117.357 185.2 115.695 185.286 115.695 185.286M119.908 185.462C118.502 185.427 117.098 185.369 115.695 185.286M189.663 264.359C197.496 245.448 193.732 222.944 185.942 203.893M189.663 264.359C187.337 269.974 183.99 275.272 179.422 280.069M180.311 320.379C180.311 320.379 175.865 320.209 171.715 320.379C164.025 320.695 156.302 324.529 156.302 324.529M180.311 320.379C180.311 320.379 187.176 323.021 190.685 326.011C198.688 332.828 200.486 342.251 191.871 348.292C184.757 353.28 169.61 353.416 161.045 352.687C151.584 351.882 136.147 348.537 131.108 341.127C129.555 334.027 129.829 320.875 130.065 309.543C130.144 305.737 130.219 302.136 130.219 299.038M57.3044 278.883L56.3704 264.359M57.3044 278.883C57.3044 278.883 59.4363 289.73 60.8609 296.667C62.7651 305.941 65.8998 320.379 65.8998 320.379M57.3044 278.883C48.3942 287.474 36.4899 289.137 25.4857 283.329C5.21617 272.63 11.9544 240.404 17.883 222.863C25.5481 200.184 39.6756 181.67 56.7116 165.064C56.7116 165.064 65.1776 171.289 72.1242 174.846C81.7679 179.784 91.1579 182.033 101.764 183.738C106.443 184.49 111.062 185.015 115.695 185.286M56.3704 264.359C48.4993 245.975 54.145 222.791 61.1573 203.893M56.3704 264.359C58.8586 270.171 62.6975 275.503 68.271 280.069M65.8998 320.379C65.8998 320.379 55.69 323.245 52.2653 328.382C45.7445 338.163 50.1905 348.292 57.3044 350.612C71.7501 355.324 108.581 354.641 115.992 341.127C118.204 337.093 115.992 309.805 115.992 299.038M65.8998 320.379C65.8998 320.379 71.152 320.081 74.4954 320.379C80.8153 320.944 90.2047 324.529 90.2047 324.529M130.219 299.038H115.992M130.219 299.038C130.219 299.038 138.508 298.248 143.557 296.667C147.27 295.505 152.745 292.814 152.745 292.814M115.992 299.038C115.992 299.038 107 298.745 101.764 296.667C98.8276 295.502 94.6507 292.814 94.6507 292.814" stroke="#1A2310" stroke-width="8" stroke-linecap="round"/>
<path d="M190.685 278.883C199.822 287.314 209.478 289.521 220.326 283.329C240.539 271.791 235.561 240.961 229.514 222.863C222.181 200.918 206.043 181.905 190.389 165.361C181.313 171.93 171.276 177.315 160.452 180.477C151.159 183.193 140.763 184.564 131.108 185.22C127.328 185.476 123.607 185.552 119.908 185.462M190.685 278.883C190.286 273.211 189.663 264.359 189.663 264.359M190.685 278.883C189.146 285.847 188.237 289.741 186.535 296.667C184.251 305.965 180.311 320.379 180.311 320.379M119.908 185.462C128.347 186.326 146.521 190.993 146.521 215.156C146.521 235.015 123.994 241.536 123.994 241.536C123.994 241.536 101.624 247.761 100.875 267.62C99.6895 299.038 130.219 299.038 130.219 299.038M119.908 185.462C117.357 185.2 115.695 185.286 115.695 185.286M119.908 185.462C118.502 185.427 117.098 185.369 115.695 185.286M189.663 264.359C197.496 245.448 193.732 222.944 185.942 203.893M189.663 264.359C187.337 269.974 183.99 275.272 179.422 280.069M180.311 320.379C180.311 320.379 175.865 320.209 171.715 320.379C164.025 320.695 156.302 324.529 156.302 324.529M180.311 320.379C180.311 320.379 187.176 323.021 190.685 326.011C198.688 332.828 200.486 342.251 191.871 348.292C184.757 353.28 169.61 353.416 161.045 352.687C151.584 351.882 136.147 348.537 131.108 341.127C129.555 334.027 129.829 320.875 130.065 309.543C130.144 305.737 130.219 302.136 130.219 299.038M57.3044 278.883L56.3704 264.359M57.3044 278.883C57.3044 278.883 59.4363 289.73 60.8609 296.667C62.7651 305.941 65.8998 320.379 65.8998 320.379M57.3044 278.883C48.3942 287.474 36.4899 289.137 25.4857 283.329C5.21617 272.63 11.9544 240.404 17.883 222.863C25.5481 200.184 39.6756 181.67 56.7116 165.064C56.7116 165.064 65.1776 171.289 72.1242 174.846C81.7679 179.784 91.1579 182.033 101.764 183.738C106.443 184.49 111.062 185.015 115.695 185.286M56.3704 264.359C48.4993 245.975 54.145 222.791 61.1573 203.893M56.3704 264.359C58.8586 270.171 62.6975 275.503 68.271 280.069M65.8998 320.379C65.8998 320.379 55.69 323.245 52.2653 328.382C45.7445 338.163 50.1905 348.292 57.3044 350.612C71.7501 355.324 108.581 354.641 115.992 341.127C118.204 337.093 115.992 309.805 115.992 299.038M65.8998 320.379C65.8998 320.379 71.152 320.081 74.4954 320.379C80.8153 320.944 90.2047 324.529 90.2047 324.529M130.219 299.038H115.992M130.219 299.038C130.219 299.038 138.508 298.248 143.557 296.667C147.27 295.505 152.745 292.814 152.745 292.814M115.992 299.038C115.992 299.038 107 298.745 101.764 296.667C98.8276 295.502 94.6507 292.814 94.6507 292.814" stroke="#1A2310" stroke-width="4" stroke-linecap="round"/>
<path d="M183.868 47.0972C181.336 44.2793 177.302 41.418 175.188 40.0029C174.355 39.4461 173.935 38.4427 174.284 37.5043C175.247 34.9166 177.834 29.8241 183.868 27.2377C190.4 24.4375 196.929 26.7159 201.355 32.2771C205.147 37.042 205.704 42.151 203.726 47.6891C201.598 53.6507 196.258 56.8594 193.418 58.1943C192.374 58.6848 191.182 58.212 190.618 57.2062C189.185 54.65 186.378 49.8921 183.868 47.0972Z" fill="#40FF00" stroke="#1A2310" stroke-width="8"/>
<path d="M63.1649 47.0972C65.6964 44.2793 69.7304 41.418 71.8449 40.0029C72.6772 39.4461 73.0975 38.4427 72.7483 37.5043C71.7856 34.9166 69.1985 29.8241 63.1649 27.2377C56.6325 24.4375 50.1029 26.7159 45.6772 32.2771C41.8852 37.042 41.3283 42.151 43.306 47.6891C45.4348 53.6507 50.7745 56.8594 53.6147 58.1943C54.6583 58.6848 55.8501 58.212 56.4141 57.2062C57.8475 54.65 60.6543 49.8921 63.1649 47.0972Z" fill="#A5593F" stroke="#1A2310" stroke-width="9"/>
<path d="M169.047 148.467C167.185 125.474 144.982 106.422 122.216 107.267C100.529 108.072 80.2271 126.533 78.6449 148.467C77.5138 164.148 86.3086 178.401 101.468 183.443C115.992 186.407 133.48 186.407 147.114 183.443C161.744 178.252 170.282 163.705 169.047 148.467Z" fill="#A5593F" stroke="#1A2310" stroke-width="4"/>
<path d="M113.62 160.026C128.737 160.915 138.717 161.538 148.499 148.793" stroke="#1A2310" stroke-width="6" stroke-linecap="round"/>
<path d="M182.089 91.8555C182.744 91.8555 183.275 92.3866 183.275 93.0411C183.275 93.6961 182.744 94.2267 182.089 94.2267H174.92C174.802 95.4941 174.494 96.7384 174.005 97.9187C173.365 99.4647 172.426 100.87 171.243 102.053C170.059 103.237 168.654 104.176 167.108 104.816C165.561 105.457 163.904 105.786 162.23 105.786C160.557 105.786 158.899 105.457 157.353 104.816C155.807 104.176 154.401 103.237 153.218 102.053C152.034 100.87 151.096 99.4647 150.455 97.9187C149.966 96.7384 149.659 95.4941 149.541 94.2267H144.15C143.495 94.2267 142.964 93.6961 142.964 93.0411C142.964 92.3866 143.495 91.8555 144.15 91.8555H182.089Z" fill="#1A2310"/>
<path d="M65.3062 91.8555C64.6515 91.8555 64.1206 92.3866 64.1206 93.0411C64.1207 93.6955 64.6516 94.2267 65.3062 94.2267H72.4761C72.5947 95.4941 72.9012 96.7384 73.3902 97.9187C74.0304 99.4647 74.97 100.87 76.1533 102.053C77.3365 103.237 78.7415 104.176 80.2881 104.816C81.8341 105.457 83.4916 105.786 85.1651 105.786C86.8386 105.786 88.496 105.457 90.0427 104.816C91.5887 104.176 92.9942 103.237 94.1775 102.053C95.3613 100.87 96.2997 99.4647 96.9399 97.9187C97.429 96.7384 97.7367 95.4941 97.8546 94.2267H103.246C103.9 94.2267 104.431 93.6961 104.431 93.0411C104.431 92.3866 103.901 91.8555 103.246 91.8555H65.3062Z" fill="#1A2310"/>
<path d="M142.773 125.385C141.032 117.38 130.774 115.723 124.099 115.604C117.33 115.483 105.659 117.019 103.944 125.385C101.953 135.093 115.108 144.682 124.099 144.059C132.602 143.469 144.788 134.652 142.773 125.385Z" fill="#1A2310" stroke="#1A2310"/>
<path d="M129.765 125.997C132.73 126.313 135.276 125.232 135.452 123.584C135.628 121.935 133.366 120.343 130.401 120.027C127.435 119.711 124.889 120.791 124.713 122.44C124.537 124.088 126.799 125.681 129.765 125.997Z" fill="#D9D9D9"/>
</svg>
