<svg width="541" height="926" viewBox="0 0 541 926" fill="none" xmlns="http://www.w3.org/2000/svg">
<rect width="541.006" height="922.003" transform="translate(0 4)"/>
<path fill-rule="evenodd" clip-rule="evenodd" d="M72.9131 575C78.4285 575 83.9502 575.351 89.4717 576.041L89.4727 576.04C101.462 577.521 113.305 581.163 124.011 587.27C124.016 587.272 124.021 587.276 124.025 587.278C127.171 589.081 130.837 590.807 135.569 593.382C136.891 594.101 138.244 594.862 139.522 595.642C145.228 590.455 151.254 587.057 157.974 583.386L158.289 583.223C158.608 583.066 158.937 582.931 159.274 582.818C166.056 580.553 174.535 579.41 181.909 578.802C189.416 578.182 196.37 578.073 200.365 578.073C212.762 578.073 224.74 579.998 235.996 584.233C242.609 586.46 245.304 586.928 256.382 591.042C268.905 584.509 279.506 580.32 292.392 577.915L292.875 577.84C293.037 577.82 293.2 577.804 293.363 577.794C321.744 576.031 342.947 575.698 368.324 582.158L369.536 582.471L369.851 582.561C370.581 582.784 371.276 583.11 371.914 583.531C377.076 586.935 385.303 593.753 389.606 598.377C391.547 599.755 392.803 600.66 393.791 601.296C395.06 599.999 396.742 597.96 399.361 594.668C401.595 591.861 404.48 588.064 407.786 585.096C411.26 581.977 415.907 579.089 421.989 578.783L476.135 576.057L476.219 576.053L476.601 576.038L476.688 576.035C488.327 575.699 498.759 583.274 502.014 594.501L539.994 725.537C542.075 732.718 540.914 740.449 536.816 746.7C532.718 752.952 526.092 757.101 518.678 758.058L484.177 762.508C483.833 762.552 483.486 762.575 483.14 762.574L38.2891 761.818C37.6847 761.817 37.0819 761.748 36.4932 761.611C35.7395 761.436 34.9864 761.252 34.2334 761.064C32.9139 761.385 31.5172 761.37 30.1768 760.992C29.1326 760.698 28.3072 760.237 27.7032 759.807C27.2582 759.49 26.8988 759.164 26.6172 758.876C22.4498 757.485 18.4001 755.834 14.4864 753.908C5.74574 749.606 0.203608 740.717 0.188507 730.976L3.07267e-05 609.859C-0.0160114 599.468 6.25077 590.095 15.8614 586.141C20.3148 584.308 24.9447 582.717 29.7285 581.348C34.3914 579.953 39.1212 578.809 43.9131 577.915V577.916C48.7567 576.963 53.6017 576.254 58.4444 575.796V575.797C63.3229 575.274 68.1495 575 72.9131 575ZM39.836 757.513L39.833 757.514C39.8343 757.513 39.8361 757.513 39.8369 757.513L39.8389 757.512H39.8379L39.836 757.513ZM40.4385 757.188C40.4529 757.18 40.4681 757.173 40.4815 757.164C40.5022 757.147 40.5223 757.124 40.544 757.096C40.5046 757.131 40.4696 757.163 40.4385 757.188ZM483.152 754.574V754.573L38.3037 753.818H38.3028L483.152 754.574ZM72.9121 600.605C69.095 600.605 65.1524 600.825 61.085 601.264C57.0176 601.64 52.919 602.236 48.7891 603.051C44.7215 603.803 40.7159 604.775 36.7735 605.966C32.8313 607.094 29.1077 608.379 25.6035 609.821L25.792 730.938C29.3588 732.694 33.1446 734.167 37.1494 735.358C41.1542 736.487 45.2217 737.395 49.3516 738.085C53.4816 738.775 57.6122 739.244 61.7422 739.495C65.9349 739.809 69.9718 739.966 73.8516 739.966C77.7939 739.966 82.0181 739.809 86.5235 739.495C91.0915 739.182 95.6284 738.556 100.134 737.615C104.639 736.675 108.957 735.39 113.087 733.76C117.28 732.067 120.972 729.903 124.163 727.271C127.354 724.638 129.889 721.441 131.767 717.68C133.707 713.918 134.677 709.436 134.677 704.232C134.677 700.032 134.019 696.083 132.705 692.384C131.454 688.685 129.639 685.362 127.261 682.416C124.946 679.47 122.099 676.962 118.72 674.894C115.403 672.825 111.71 671.257 107.643 670.191C111.022 669.376 114.057 668.123 116.748 666.431C119.439 664.675 121.723 662.575 123.601 660.13C125.478 657.685 126.917 654.926 127.918 651.854C128.919 648.783 129.42 645.492 129.42 641.981C129.42 636.653 128.638 631.951 127.073 627.876C125.571 623.801 123.444 620.228 120.69 617.156C118 614.084 114.839 611.514 111.21 609.445C107.581 607.314 103.669 605.59 99.4766 604.273C95.2839 602.957 90.9032 602.016 86.335 601.452C81.8295 600.888 77.355 600.605 72.9121 600.605ZM321.391 600.605C317.573 600.605 313.631 600.825 309.564 601.264C305.496 601.64 301.397 602.236 297.267 603.051C293.199 603.803 289.194 604.775 285.252 605.966C281.31 607.094 277.586 608.379 274.082 609.821L274.27 730.938C277.836 732.694 281.623 734.167 285.628 735.358C289.633 736.487 293.7 737.395 297.83 738.085C301.96 738.775 306.091 739.244 310.221 739.495C314.413 739.809 318.449 739.966 322.329 739.966C326.271 739.966 330.496 739.809 335.001 739.495C339.569 739.182 344.107 738.556 348.612 737.615C353.118 736.675 357.435 735.39 361.565 733.76C365.758 732.067 369.45 729.903 372.642 727.271C375.833 724.638 378.368 721.441 380.245 717.68C382.185 713.918 383.154 709.436 383.154 704.232C383.154 700.032 382.498 696.083 381.184 692.384C379.932 688.685 378.117 685.362 375.739 682.416C373.424 679.47 370.576 676.962 367.197 674.894C363.881 672.825 360.189 671.257 356.121 670.191C359.5 669.376 362.536 668.123 365.227 666.431C367.917 664.675 370.201 662.575 372.078 660.13C373.955 657.685 375.395 654.926 376.397 651.854C377.398 648.783 377.898 645.492 377.898 641.981C377.898 636.653 377.116 631.951 375.552 627.876C374.05 623.801 371.922 620.228 369.169 617.156C366.478 614.085 363.318 611.514 359.689 609.445C356.059 607.314 352.148 605.59 347.955 604.273C343.762 602.957 339.382 602.016 334.814 601.452C330.308 600.888 325.834 600.605 321.391 600.605ZM423.276 604.355L384.517 734.029L434.184 738.897L439.053 716.896H461.256L467.1 738.897L515.402 732.667L477.422 601.63L423.276 604.355ZM200.365 603.679C194.278 603.679 188.496 604.527 183.018 606.224C177.54 607.92 172.433 610.296 167.699 613.351C163.033 616.405 158.805 620.037 155.018 624.245C151.23 628.453 147.984 633.068 145.278 638.091C142.641 643.114 140.612 648.476 139.191 654.178C137.771 659.811 137.062 665.58 137.062 671.485C137.062 677.526 137.805 683.33 139.293 688.896C140.849 694.461 142.979 699.687 145.685 704.574C148.457 709.393 151.771 713.805 155.626 717.81C159.549 721.746 163.911 725.141 168.713 727.991C173.515 730.774 178.656 732.946 184.134 734.507C189.68 736.068 195.496 736.849 201.583 736.849C207.873 736.849 213.824 736.034 219.438 734.405C225.051 732.708 230.226 730.366 234.96 727.38C239.762 724.393 244.056 720.83 247.844 716.689C251.699 712.481 254.945 707.866 257.583 702.844C260.288 697.821 262.351 692.458 263.772 686.757C265.192 680.988 265.901 675.014 265.901 668.838C265.901 658.928 264.312 649.969 261.134 641.96C258.023 633.883 253.593 627.027 247.844 621.394C242.163 615.692 235.264 611.315 227.148 608.261C219.1 605.206 210.172 603.679 200.365 603.679ZM73.6631 681.288C74.9772 681.288 76.417 681.444 77.9815 681.758C79.5457 682.009 80.9849 682.573 82.2989 683.45C83.6129 684.265 84.708 685.425 85.584 686.93C86.5226 688.434 86.9922 690.378 86.9922 692.76C86.9922 695.142 86.5227 697.054 85.584 698.496C84.7079 699.938 83.5818 701.098 82.2051 701.976C80.8286 702.79 79.3582 703.355 77.794 703.668C76.2295 703.919 74.7897 704.044 73.4756 704.044C72.5997 704.044 71.6924 703.982 70.7539 703.856C69.8779 703.668 68.9699 703.48 68.0313 703.292L68.4073 681.852C70.0966 681.476 71.8486 681.288 73.6631 681.288ZM322.142 681.288C323.456 681.288 324.895 681.444 326.459 681.758C328.023 682.009 329.463 682.573 330.777 683.45C332.091 684.265 333.186 685.425 334.063 686.93C335.001 688.434 335.471 690.378 335.471 692.76C335.471 695.142 335.001 697.054 334.063 698.496C333.186 699.938 332.06 701.098 330.684 701.976C329.307 702.791 327.836 703.355 326.272 703.668C324.707 703.919 323.268 704.044 321.954 704.044C321.078 704.044 320.17 703.982 319.231 703.856C318.355 703.668 317.448 703.48 316.51 703.292L316.885 681.852C318.574 681.475 320.327 681.288 322.142 681.288ZM201.583 648.476C204.694 648.476 207.433 649.154 209.8 650.512C212.234 651.801 214.264 653.532 215.887 655.704C217.51 657.808 218.727 660.252 219.539 663.035C220.418 665.75 220.858 668.567 220.858 671.485C220.858 674.472 220.384 677.357 219.438 680.14C218.491 682.922 217.138 685.399 215.38 687.571C213.621 689.675 211.457 691.372 208.887 692.662C206.384 693.884 203.544 694.495 200.365 694.495C197.187 694.495 194.38 693.782 191.945 692.356C189.578 690.931 187.583 689.065 185.96 686.757C184.337 684.449 183.119 681.87 182.308 679.02C181.496 676.169 181.09 673.318 181.09 670.467C181.09 667.48 181.564 664.664 182.511 662.017C183.458 659.302 184.81 656.96 186.568 654.992C188.394 652.956 190.559 651.361 193.062 650.207C195.564 649.053 198.404 648.476 201.583 648.476ZM448.4 654.36C448.76 652.121 451.98 652.115 452.349 654.353L457.75 687.105H443.143L448.4 654.36ZM76.1035 640.477C77.1048 640.477 78.2319 640.665 79.4834 641.041C80.7973 641.417 81.9862 642.012 83.0498 642.827C84.1762 643.642 85.1153 644.708 85.8662 646.024C86.6171 647.278 86.9921 648.814 86.9922 650.632C86.9922 653.516 86.3044 655.804 84.9278 657.497C83.5511 659.127 81.8609 660.38 79.8584 661.258C77.9185 662.073 75.8845 662.606 73.7569 662.856C71.6296 663.107 69.8464 663.233 68.4073 663.233L68.9698 642.357C70.0962 641.856 71.2544 641.417 72.4434 641.041C73.6322 640.665 74.8522 640.477 76.1035 640.477ZM324.582 640.477C325.583 640.477 326.71 640.665 327.961 641.041C329.275 641.417 330.465 642.012 331.528 642.827C332.655 643.642 333.593 644.708 334.344 646.024C335.095 647.278 335.471 648.814 335.471 650.632C335.471 653.516 334.782 655.804 333.405 657.497C332.029 659.127 330.339 660.38 328.337 661.258C326.397 662.073 324.363 662.606 322.235 662.856C320.108 663.107 318.324 663.233 316.885 663.233L317.448 642.357C318.575 641.856 319.732 641.417 320.921 641.041C322.11 640.665 323.331 640.477 324.582 640.477ZM232.382 591.425C232.705 591.542 233.027 591.662 233.349 591.784L233.359 591.788L233.348 591.783C233.026 591.661 232.704 591.542 232.381 591.424L232.382 591.425ZM368.482 590.868C368.818 591.101 369.165 591.345 369.521 591.602C368.81 591.089 368.134 590.621 367.511 590.21L368.482 590.868ZM229.454 590.42C229.782 590.526 230.109 590.633 230.435 590.742L229.454 590.419C229.127 590.313 228.799 590.21 228.47 590.108L229.454 590.42ZM362.939 589.078C362.43 588.96 361.923 588.843 361.417 588.73C361.923 588.843 362.43 588.959 362.939 589.078ZM33.5899 588.554C33.5387 588.568 33.4878 588.584 33.4366 588.599C33.5845 588.556 33.7327 588.515 33.8809 588.473C33.784 588.5 33.6867 588.526 33.5899 588.554ZM35.3535 588.064C35.2545 588.091 35.1556 588.119 35.0567 588.146C35.1556 588.119 35.2545 588.091 35.3535 588.064ZM357.335 587.872L356.227 587.657C356.113 587.636 355.999 587.615 355.886 587.594C356.368 587.684 356.851 587.777 357.335 587.872ZM355.288 587.483C354.919 587.416 354.551 587.349 354.183 587.284C354.551 587.349 354.919 587.416 355.288 587.483ZM293.858 585.779C293.794 585.791 293.73 585.804 293.665 585.816C293.73 585.804 293.795 585.791 293.859 585.779C294.779 585.722 295.689 585.667 296.592 585.613L293.858 585.779ZM479.985 584.212C479.873 584.195 479.761 584.179 479.648 584.165C479.761 584.179 479.873 584.195 479.985 584.212ZM479.45 584.142C479.349 584.13 479.247 584.117 479.145 584.107C479.093 584.102 479.04 584.097 478.988 584.093C479.143 584.106 479.297 584.124 479.45 584.142ZM478.934 584.089C478.738 584.072 478.542 584.058 478.345 584.048C478.542 584.058 478.738 584.072 478.934 584.089ZM478.262 584.044C478.064 584.035 477.866 584.028 477.667 584.025C477.866 584.028 478.064 584.035 478.262 584.044ZM87.2725 583.833C87.679 583.88 88.0855 583.93 88.4922 583.98V583.979C88.0856 583.929 87.679 583.88 87.2725 583.833ZM77.7735 583.097C78.422 583.122 79.0708 583.153 79.7198 583.188L78.7471 583.139C78.4225 583.123 78.098 583.109 77.7735 583.097Z" fill="black"/>
<path fill-rule="evenodd" clip-rule="evenodd" d="M483.166 748.575L483.423 748.58C484.702 748.623 485.954 748.973 487.071 749.601C490.237 751.379 493.277 753.385 496.176 755.624V755.625C504.235 761.851 510.637 769.613 515.319 778.631H515.32C520.592 788.659 522.821 799.616 522.821 810.779C522.821 817.054 522.269 823.236 520.995 829.203L520.996 829.204C519.722 835.414 517.605 841.401 514.544 847.026C512.321 851.112 509.666 854.883 506.647 858.346L519.327 881.058C523.162 887.927 523.475 896.218 520.168 903.357C516.862 910.496 510.337 915.621 502.616 917.14H502.615L460.11 925.497H460.109C453.208 926.854 446.338 925.173 440.978 921.301C437.087 923.882 432.421 925.389 427.411 925.389H386.795C381.108 925.389 375.628 923.415 371.265 919.855L333.455 924.732C326.109 925.68 319.025 923.268 313.854 918.606C309.011 922.972 302.477 925.381 295.579 924.867L295 924.817L246.314 920.045C244.277 920.647 242.133 920.994 239.921 921.046L161.387 922.879C155.082 923.026 148.978 920.743 144.325 916.53C143.206 917.051 142.072 917.547 140.924 918.011L140.918 918.013C140.859 918.037 140.805 918.056 140.774 918.068L140.775 918.069L140.735 918.085C135.265 920.243 129.609 921.92 123.792 923.134C118.198 924.301 112.553 925.08 106.865 925.472L106.866 925.473C101.874 925.82 97.0763 926.003 92.4903 926.003C87.9831 926.003 83.3662 925.822 78.6475 925.472L76.8057 925.345C73.1228 925.067 69.4463 924.645 65.7783 924.081L63.9453 923.787C58.9387 922.951 53.9972 921.847 49.126 920.475V920.474C48.9966 920.437 48.8783 920.403 48.7862 920.376H48.7852C43.8552 918.91 39.0832 917.09 34.4971 914.896L33.5821 914.451C25.1946 910.323 19.8779 901.792 19.8633 892.445L19.6748 771.328V771.327C19.6595 761.144 26.2383 752.134 35.2588 748.422C36.2286 748.023 37.2678 747.819 38.3164 747.82L483.166 748.575ZM90.8633 917.994L92.4903 918.003V918.002C91.4397 918.002 90.3817 917.991 89.3164 917.971C89.8338 917.981 90.3494 917.989 90.8633 917.994ZM80.6416 917.594C80.7009 917.598 80.7602 917.601 80.8194 917.605C80.2636 917.568 79.7059 917.529 79.1465 917.487L80.6416 917.594ZM129.137 913.58V913.581C129.464 913.487 129.791 913.392 130.117 913.295V913.294C129.791 913.391 129.464 913.486 129.137 913.58ZM240.248 913.027C240.309 913.024 240.371 913.02 240.432 913.016C240.371 913.02 240.309 913.024 240.248 913.027ZM240.768 912.991C240.795 912.989 240.823 912.988 240.851 912.985C240.924 912.979 240.997 912.97 241.069 912.963C240.969 912.973 240.868 912.983 240.768 912.991ZM374.068 911.428C374.349 911.764 374.643 912.092 374.952 912.407C375.05 912.507 375.148 912.605 375.248 912.702L374.953 912.407C374.644 912.092 374.35 911.764 374.069 911.428H374.068ZM241.583 912.902C241.438 912.922 241.292 912.939 241.146 912.955C241.17 912.952 241.194 912.951 241.219 912.948C241.341 912.934 241.462 912.919 241.583 912.902ZM441.55 910.533H441.551C441.434 910.356 441.32 910.176 441.209 909.993H441.208C441.319 910.176 441.433 910.356 441.55 910.533ZM316.452 909.449H316.453H316.452ZM502.024 909.072C501.71 909.154 501.393 909.227 501.072 909.29L501.543 909.19C501.704 909.154 501.865 909.114 502.024 909.072ZM314.299 904.619C314.332 904.745 314.367 904.869 314.403 904.993L314.3 904.619L313.822 902.821L314.299 904.619ZM91.5518 762.075C87.7347 762.075 83.7921 762.295 79.7246 762.733C75.6573 763.11 71.5587 763.706 67.4287 764.521C63.3612 765.273 59.3555 766.244 55.4131 767.436C51.4709 768.564 47.7474 769.849 44.2432 771.291L44.4317 892.408C47.9984 894.163 51.7843 895.636 55.7891 896.827C59.7939 897.956 63.8612 898.865 67.9912 899.555C72.1213 900.244 76.2518 900.714 80.3819 900.965C84.5746 901.278 88.6114 901.436 92.4912 901.436C96.4335 901.436 100.658 901.278 105.163 900.965C109.731 900.651 114.268 900.024 118.773 899.084C123.279 898.144 127.597 896.858 131.727 895.229C135.919 893.536 139.611 891.373 142.803 888.74C145.994 886.107 148.529 882.91 150.406 879.148C152.346 875.387 153.316 870.905 153.316 865.702C153.316 861.502 152.659 857.552 151.345 853.854C150.093 850.155 148.278 846.832 145.9 843.886C143.585 840.939 140.738 838.432 137.358 836.363C134.042 834.295 130.35 832.727 126.282 831.661C129.661 830.846 132.697 829.592 135.388 827.899C138.078 826.144 140.363 824.044 142.24 821.6C144.118 819.155 145.556 816.396 146.558 813.324C147.559 810.252 148.06 806.961 148.06 803.45C148.06 798.122 147.277 793.42 145.713 789.346C144.211 785.271 142.084 781.697 139.33 778.625C136.639 775.553 133.479 772.983 129.85 770.914C126.22 768.783 122.309 767.059 118.116 765.742C113.924 764.426 109.543 763.486 104.975 762.922C100.469 762.358 95.9947 762.075 91.5518 762.075ZM442.524 763.1C437.865 763.1 433.299 763.226 428.828 763.48C424.42 763.669 420.044 764.081 415.699 764.714C411.417 765.284 407.135 766.107 402.854 767.184C398.572 768.26 394.226 769.621 389.818 771.268C389.441 778.549 389.188 785.769 389.063 792.924C388.937 800.079 388.811 807.297 388.685 814.579C388.307 829.016 387.96 843.39 387.646 857.7C387.394 872.011 387.111 886.384 386.796 900.821H427.411L429.111 861.31L440.824 860.93L455.37 901.392L497.875 893.033L475.395 852.761C479.488 850.165 482.982 847.442 485.879 844.593C488.776 841.743 491.138 838.641 492.964 835.285C494.79 831.929 496.112 828.256 496.931 824.267C497.812 820.214 498.253 815.719 498.253 810.78C498.253 802.865 496.679 795.932 493.53 789.98C490.445 784.027 486.32 779.057 481.156 775.067C475.993 771.078 470.042 768.102 463.305 766.139C456.63 764.112 449.703 763.1 442.524 763.1ZM286.489 765.825L247.73 895.499L297.397 900.367L302.266 878.365H324.469L330.313 900.367L378.615 894.137L340.635 763.1L286.489 765.825ZM163.729 766.173L160.814 898.318L239.348 896.485C239.651 889.826 239.985 883.198 240.35 876.6C240.775 869.94 241.17 863.251 241.534 856.53H202.905L203.816 843.15L231.148 842.234L233.152 813.826H206.003L206.914 802.279L245.543 800.263C246.029 794.52 246.424 788.838 246.728 783.218C247.031 777.597 247.365 771.916 247.73 766.173H163.729ZM92.3028 842.758C93.6169 842.758 95.0567 842.914 96.6211 843.228C98.1854 843.478 99.6245 844.042 100.939 844.92C102.253 845.735 103.348 846.895 104.224 848.399C105.162 849.904 105.632 851.847 105.632 854.229C105.632 856.612 105.162 858.524 104.224 859.966C103.348 861.408 102.221 862.568 100.845 863.445C99.4682 864.26 97.9978 864.824 96.4336 865.138C94.8692 865.388 93.4294 865.514 92.1153 865.514C91.2393 865.514 90.3321 865.452 89.3936 865.326C88.5175 865.138 87.6096 864.95 86.6709 864.762L87.0469 843.321C88.7363 842.945 90.4883 842.758 92.3028 842.758ZM311.613 815.83C311.973 813.591 315.192 813.584 315.562 815.821L320.963 848.575H306.355L311.613 815.83ZM438.935 795.583C441.768 795.583 444.225 796.058 446.303 797.008C448.444 797.894 450.207 799.161 451.592 800.807C453.04 802.39 454.111 804.29 454.804 806.506C455.559 808.722 455.938 811.16 455.938 813.819C455.938 816.985 455.213 819.708 453.765 821.987C452.379 824.267 450.553 826.135 448.286 827.592C446.082 829.048 443.563 830.124 440.73 830.82C437.959 831.517 435.219 831.865 432.512 831.865H430.245L431.757 796.533C432.89 796.217 434.055 795.995 435.251 795.868C436.447 795.678 437.675 795.583 438.935 795.583ZM94.7432 801.946C95.7444 801.946 96.8715 802.135 98.1231 802.511C99.437 802.887 100.626 803.482 101.689 804.297C102.816 805.112 103.755 806.178 104.506 807.494C105.257 808.748 105.632 810.284 105.632 812.102C105.632 814.985 104.944 817.274 103.567 818.967C102.191 820.597 100.501 821.85 98.4981 822.728C96.5582 823.543 94.5241 824.075 92.3965 824.326C90.2692 824.577 88.486 824.702 87.0469 824.702L87.6094 803.827C88.7358 803.326 89.8941 802.887 91.083 802.511C92.2719 802.135 93.4918 801.946 94.7432 801.946ZM514.726 807.016C514.758 807.639 514.782 808.264 514.798 808.892C514.79 808.578 514.781 808.265 514.769 807.953C514.757 807.64 514.743 807.328 514.727 807.017L514.726 807.016ZM513.439 796.936C513.717 798.263 513.951 799.603 514.144 800.955C513.994 799.907 513.822 798.866 513.621 797.833C513.563 797.533 513.502 797.234 513.439 796.936H513.439ZM495.139 765.193C495.55 765.569 495.955 765.949 496.355 766.335L495.751 765.76C495.548 765.57 495.344 765.381 495.139 765.193ZM489.436 760.578L489.322 760.495C489.26 760.451 489.197 760.407 489.135 760.363C489.235 760.435 489.335 760.506 489.436 760.578ZM488.505 759.922C488.444 759.88 488.384 759.837 488.323 759.795C488.28 759.765 488.237 759.737 488.193 759.707C488.297 759.778 488.401 759.85 488.505 759.922ZM35.8858 752.744C35.5016 753.123 34.9734 753.715 34.6143 754.345C34.7374 755.461 35.1639 756.398 35.71 757.162C35.6976 757.17 35.6852 757.178 35.6729 757.186L35.8116 757.099C35.223 755.284 35.5475 753.429 35.8858 752.744ZM38.3086 751.872C38.0684 751.879 37.8361 751.898 37.6455 751.918C38.1219 752.029 39.3402 752.628 40.3819 753.738C40.0423 753.063 39.5515 752.42 38.8574 751.878C38.68 751.867 38.4918 751.867 38.3086 751.872Z" fill="black"/>
<path d="M278.664 25.6383C274.664 25.2046 270.779 24.9508 267.164 24.9508C242.31 24.9508 204.664 36.9507 204.664 36.9507C197.164 12.4492 157.502 -5.32408 128.664 12.4492C111.744 22.8767 102.662 42.2998 104.165 61.9492C105.795 83.2719 116.164 97.4492 137.165 110.949C133.409 119.825 132.451 129.632 131.743 136.872C131.414 140.236 131.14 143.046 130.664 144.949C120.579 174.317 111.057 209.356 128.664 237.449C144.243 262.306 175.848 282.637 204.164 290.576C234.148 298.984 270.439 301.441 304.164 295.924M278.664 25.6383C302.171 28.1873 329.664 36.9507 329.664 36.9507C329.664 36.9507 341.758 17.3323 354.164 10.9508C371.181 2.19776 386.709 1.1823 403.164 10.9508C429.331 26.4848 433.969 61.1139 420.164 86.4508C413.491 98.6967 394.664 111.451 394.664 111.451C398.664 119.449 400.664 138.949 400.664 144.949C413.701 175.214 422.607 206.525 404.664 237.449C394.847 254.369 371.973 271.06 354.664 279.949C339.465 287.755 322.18 292.977 304.164 295.924M278.664 25.6383C258.629 41.5521 244.164 60.6488 244.164 86.4508C244.164 121.449 260.664 141.449 285.164 161.949C287.056 163.532 288.723 164.951 290.287 166.281C294.794 170.116 298.447 173.224 304.164 177.449C306.223 178.971 308.01 180.081 309.728 181.148C312.152 182.654 314.44 184.075 317.164 186.449C325.024 193.3 331.594 202.073 336.164 211.449C340.606 220.563 342.515 226.331 343.164 236.449C345.055 265.949 330.164 286.449 304.164 295.924" stroke="black" stroke-width="4"/>
<path d="M278.664 25.6383C274.664 25.2046 270.779 24.9508 267.164 24.9508C242.31 24.9508 204.664 36.9507 204.664 36.9507C197.164 12.4492 157.502 -5.32408 128.664 12.4492C111.744 22.8767 102.662 42.2998 104.165 61.9492C105.795 83.2719 116.164 97.4492 137.165 110.949C131.664 123.949 132.164 138.949 130.664 144.949C120.579 174.317 111.057 209.356 128.664 237.449C144.243 262.306 175.848 282.637 204.164 290.576C234.148 298.984 270.439 301.441 304.164 295.924M278.664 25.6383C302.171 28.1873 329.664 36.9507 329.664 36.9507C329.664 36.9507 341.758 17.3323 354.164 10.9508C371.181 2.19776 386.709 1.1823 403.164 10.9508C429.331 26.4848 433.969 61.1139 420.164 86.4508C413.491 98.6967 394.664 111.451 394.664 111.451C398.664 119.449 400.664 138.949 400.664 144.949C413.701 175.214 422.607 206.525 404.664 237.449C394.847 254.369 371.973 271.06 354.664 279.949C339.465 287.755 322.18 292.977 304.164 295.924M278.664 25.6383C258.629 41.5521 244.164 60.6488 244.164 86.4508C244.164 121.449 260.664 141.449 285.164 161.949C287.056 163.532 288.723 164.951 290.287 166.281C294.794 170.116 298.447 173.224 304.164 177.449C306.223 178.971 308.01 180.081 309.728 181.148C312.152 182.654 314.44 184.075 317.164 186.449C325.024 193.3 331.594 202.073 336.164 211.449C340.606 220.563 342.515 226.331 343.164 236.449C345.055 265.949 330.164 286.449 304.164 295.924" stroke="black" stroke-width="4"/>
<path d="M278.664 25.6383C274.664 25.2046 270.779 24.9508 267.164 24.9508C242.31 24.9508 204.664 36.9507 204.664 36.9507C197.164 12.4492 157.502 -5.32408 128.664 12.4492C111.744 22.8767 102.662 42.2998 104.165 61.9492C105.795 83.2719 116.164 97.4492 137.165 110.949C131.664 123.949 132.164 138.949 130.664 144.949C120.579 174.317 111.057 209.356 128.664 237.449C144.243 262.306 175.848 282.637 204.164 290.576C234.148 298.984 270.439 301.441 304.164 295.924M278.664 25.6383C302.171 28.1873 329.664 36.9507 329.664 36.9507C329.664 36.9507 341.758 17.3323 354.164 10.9508C371.181 2.19776 386.709 1.1823 403.164 10.9508C429.331 26.4848 433.969 61.1139 420.164 86.4508C413.491 98.6967 394.664 111.451 394.664 111.451C398.664 119.449 400.664 138.949 400.664 144.949C413.701 175.214 422.607 206.525 404.664 237.449C394.847 254.369 371.973 271.06 354.664 279.949C339.465 287.755 322.18 292.977 304.164 295.924" stroke="black" stroke-width="8"/>
<path d="M379.665 456.449C395.078 470.671 411.366 474.394 429.665 463.949C463.763 444.486 455.366 392.478 445.165 361.949C432.794 324.93 405.572 292.857 379.165 264.949C363.855 276.03 346.923 285.114 328.664 290.449C312.987 295.03 295.451 297.343 279.164 298.449C272.788 298.882 266.511 299.01 260.271 298.857M379.665 456.449C378.991 446.881 377.94 431.949 377.94 431.949M379.665 456.449C377.068 468.196 375.535 474.766 372.664 486.449C368.81 502.133 362.164 526.449 362.164 526.449M260.271 298.857C274.506 300.315 305.164 308.188 305.164 348.949C305.164 382.449 267.164 393.449 267.164 393.449C267.164 393.449 229.428 403.949 228.164 437.449C226.164 490.449 277.664 490.449 277.664 490.449M260.271 298.857C255.967 298.416 253.164 298.561 253.164 298.561M260.271 298.857C257.898 298.798 255.53 298.7 253.164 298.561M377.94 431.949C391.154 400.047 384.804 362.086 371.664 329.949M377.94 431.949C374.017 441.42 368.37 450.357 360.664 458.449M362.164 526.449C362.164 526.449 354.664 526.162 347.664 526.449C334.692 526.981 321.664 533.449 321.664 533.449M362.164 526.449C362.164 526.449 373.745 530.906 379.665 535.949C393.164 547.449 396.197 563.344 381.664 573.535C369.664 581.949 344.113 582.179 329.664 580.949C313.705 579.591 287.664 573.949 279.164 561.449C275.664 545.449 277.664 511.227 277.664 490.449M154.664 456.449L153.089 431.949M154.664 456.449C154.664 456.449 158.261 474.746 160.664 486.449C163.876 502.093 169.164 526.449 169.164 526.449M154.664 456.449C139.634 470.942 119.552 473.747 100.989 463.949C66.7967 445.901 78.1635 391.539 88.1644 361.949C101.095 323.692 124.926 292.461 153.664 264.449C153.664 264.449 167.946 274.949 179.664 280.949C195.932 289.279 211.772 293.073 229.664 295.949C237.556 297.218 245.349 298.104 253.164 298.561M153.089 431.949C139.811 400.936 149.335 361.827 161.164 329.949M153.089 431.949C157.286 441.753 163.762 450.748 173.164 458.449M169.164 526.449C169.164 526.449 151.941 531.283 146.164 539.949C135.164 556.449 142.664 573.535 154.664 577.449C179.033 585.397 241.163 584.245 253.664 561.449C256.258 556.72 255.247 533.05 254.388 512.952C254.012 504.127 253.664 495.991 253.664 490.449M169.164 526.449C169.164 526.449 178.024 525.945 183.664 526.449C194.325 527.402 210.164 533.449 210.164 533.449M277.664 490.449H253.664M277.664 490.449C277.664 490.449 291.647 489.116 300.164 486.449C306.428 484.488 315.664 479.949 315.664 479.949M253.664 490.449C253.664 490.449 238.496 489.954 229.664 486.449C224.71 484.483 217.664 479.949 217.664 479.949" stroke="black" stroke-width="4"/>
<path d="M379.665 456.449C395.078 470.671 411.366 474.394 429.665 463.949C463.763 444.486 455.366 392.478 445.165 361.949C432.794 324.93 405.572 292.857 379.165 264.949C363.855 276.03 346.923 285.114 328.664 290.449C312.987 295.03 295.451 297.343 279.164 298.449C272.788 298.882 266.511 299.01 260.271 298.857M379.665 456.449C378.991 446.881 377.94 431.949 377.94 431.949M379.665 456.449C377.068 468.196 375.535 474.766 372.664 486.449C368.81 502.133 362.164 526.449 362.164 526.449M260.271 298.857C255.967 298.416 253.164 298.561 253.164 298.561M260.271 298.857C257.898 298.798 255.53 298.7 253.164 298.561M377.94 431.949C391.154 400.047 384.804 362.086 371.664 329.949M377.94 431.949C374.017 441.42 368.37 450.357 360.664 458.449M362.164 526.449C362.164 526.449 354.664 526.162 347.664 526.449C334.692 526.981 321.664 533.449 321.664 533.449M362.164 526.449C362.164 526.449 373.745 530.906 379.665 535.949C393.164 547.449 396.197 563.344 381.664 573.535C369.664 581.949 344.113 582.179 329.664 580.949C313.705 579.591 287.664 573.949 279.164 561.449C275.664 545.449 277.664 511.227 277.664 490.449M154.664 456.449L153.089 431.949M154.664 456.449C154.664 456.449 158.261 474.746 160.664 486.449C163.876 502.093 169.164 526.449 169.164 526.449M154.664 456.449C139.634 470.942 119.552 473.747 100.989 463.949C66.7967 445.901 78.1635 391.539 88.1644 361.949C101.095 323.692 124.926 292.461 153.664 264.449C153.664 264.449 167.946 274.949 179.664 280.949C195.932 289.279 211.772 293.073 229.664 295.949C237.556 297.218 245.349 298.104 253.164 298.561M153.089 431.949C139.811 400.936 149.335 361.827 161.164 329.949M153.089 431.949C157.286 441.753 163.762 450.748 173.164 458.449M169.164 526.449C169.164 526.449 151.941 531.283 146.164 539.949C135.164 556.449 142.664 573.535 154.664 577.449C179.033 585.397 241.163 584.245 253.664 561.449C256.258 556.72 255.247 533.05 254.388 512.952C254.012 504.127 253.664 495.991 253.664 490.449M169.164 526.449C169.164 526.449 178.024 525.945 183.664 526.449C194.325 527.402 210.164 533.449 210.164 533.449M277.664 490.449H253.664M277.664 490.449C277.664 490.449 291.647 489.116 300.164 486.449C306.428 484.488 315.664 479.949 315.664 479.949M253.664 490.449C253.664 490.449 238.496 489.954 229.664 486.449C224.71 484.483 217.664 479.949 217.664 479.949" stroke="black" stroke-width="8" stroke-linecap="round"/>
<path d="M164.551 65.4487C168.821 60.6951 175.626 55.8684 179.193 53.4814C180.597 52.5421 181.306 50.8494 180.717 49.2664C179.093 44.9013 174.729 36.3108 164.551 31.9478C153.531 27.2241 142.516 31.0676 135.051 40.4487C128.654 48.4866 127.715 57.105 131.051 66.4472C134.642 76.5038 143.649 81.9165 148.44 84.1684C150.201 84.9958 152.211 84.1982 153.163 82.5015C155.581 78.1895 160.315 70.1633 164.551 65.4487Z" fill="black" stroke="black" stroke-width="3"/>
<path d="M368.163 65.4487C363.893 60.6951 357.088 55.8684 353.521 53.4814C352.117 52.5421 351.407 50.8494 351.997 49.2664C353.621 44.9013 357.985 36.3108 368.163 31.9478C379.183 27.2241 390.197 31.0676 397.663 40.4487C404.06 48.4866 404.999 57.105 401.663 66.4472C398.072 76.5038 389.064 81.9165 384.273 84.1684C382.513 84.9958 380.502 84.1982 379.551 82.5015C377.133 78.1895 372.398 70.1633 368.163 65.4487Z" fill="black" stroke="black" stroke-width="3"/>
<path d="M301.164 139.449H365.164C365.291 139.449 365.447 139.504 365.627 139.65C365.807 139.798 365.987 140.018 366.148 140.29C366.475 140.842 366.664 141.505 366.664 141.949C366.664 142.394 366.475 143.057 366.148 143.609C365.988 143.881 365.807 144.101 365.627 144.248C365.447 144.395 365.291 144.449 365.164 144.449H352.614L352.572 144.903C352.378 146.991 351.871 149.041 351.065 150.985V150.986C350.01 153.534 348.464 155.849 346.513 157.799C344.564 159.749 342.248 161.296 339.701 162.351H339.7C337.152 163.406 334.421 163.949 331.664 163.949C328.907 163.949 326.176 163.406 323.629 162.351H323.628C321.079 161.296 318.764 159.749 316.814 157.799C314.864 155.849 313.317 153.534 312.262 150.986V150.985C311.457 149.041 310.951 146.991 310.756 144.902L310.714 144.449H301.164C301.036 144.449 300.881 144.395 300.701 144.248C300.52 144.101 300.34 143.881 300.179 143.609C299.853 143.057 299.664 142.394 299.664 141.949C299.664 141.505 299.853 140.842 300.179 140.29C300.34 140.018 300.52 139.798 300.701 139.65C300.881 139.504 301.036 139.449 301.164 139.449Z" fill="black" stroke="black"/>
<path d="M168.163 138.949C167.058 138.949 166.163 140.845 166.163 141.949C166.163 143.053 167.059 144.949 168.163 144.949H180.258C180.458 147.087 180.975 149.186 181.8 151.177C182.88 153.785 184.465 156.155 186.461 158.151C188.457 160.148 190.827 161.732 193.436 162.812C196.044 163.893 198.84 164.449 201.663 164.449C204.486 164.449 207.282 163.893 209.891 162.812C212.499 161.732 214.87 160.148 216.866 158.151C218.863 156.155 220.446 153.785 221.526 151.177C222.351 149.186 222.87 147.087 223.069 144.949H232.163C233.267 144.949 234.163 143.054 234.163 141.949C234.163 140.845 233.268 138.949 232.163 138.949H168.163Z" fill="black"/>
<path fill-rule="evenodd" clip-rule="evenodd" d="M264.089 164.949C303.53 163.485 341.925 196.4 345.157 236.286C347.306 262.816 332.437 288.249 306.833 297.333L306.712 297.375L306.588 297.403C283.301 302.466 253.52 302.46 228.764 297.407L228.646 297.384L228.533 297.346C202.036 288.533 186.699 263.606 188.669 236.304C191.416 198.227 226.547 166.343 264.089 164.949ZM341.17 236.61C338.117 198.922 301.605 167.559 264.238 168.946C228.615 170.269 195.25 200.668 192.659 236.592C190.815 262.154 205.106 285.284 229.687 293.513C253.862 298.427 282.954 298.423 305.607 293.522C329.291 285.059 343.182 261.449 341.17 236.61Z" fill="black"/>
<path d="M248.664 255.949C274.164 256.449 287 259.5 306.5 239" stroke="black" stroke-width="4" stroke-linecap="round"/>
<path fill-rule="evenodd" clip-rule="evenodd" d="M267.349 180.511C273.005 180.612 280.214 181.364 286.395 183.808C292.581 186.253 297.812 190.428 299.329 197.404C301.084 205.477 296.642 213.274 290.077 219.123C283.504 224.979 274.677 229.004 267.375 229.51C259.624 230.047 250.161 226.193 243.07 220.177C235.984 214.165 231.119 205.858 232.851 197.41C234.349 190.106 240.191 185.834 246.976 183.421C253.765 181.007 261.608 180.408 267.349 180.511ZM277.97 188.477C272.968 187.944 268.672 189.766 268.376 192.547C268.079 195.328 271.895 198.014 276.897 198.547C281.9 199.08 286.196 197.257 286.492 194.477C286.788 191.696 282.973 189.01 277.97 188.477Z" fill="black"/>
</svg>
